<?xml version="1.0" encoding="UTF-8"?>
<svg id="Layer_1" data-name="Layer 1" xmlns="http://www.w3.org/2000/svg" viewBox="0 0 1000 1000">
  <defs>
    <style>
      .cls-1 {
        fill: #000;
        stroke-width: 0px;
      }
    </style>
  </defs>
  <path class="cls-1" d="M326.82,629.09c-4.04-.25-10.27-.61-16.49-1.02-1.94-.13-3.64-3.56-2.7-5.33,1.09-2.06,1.95-4.3,3.33-6.14,15.98-21.25,31.65-42.75,48.17-63.57,18.54-23.36,39.6-44.35,63.67-62.09,17.88-13.17,32.3-29.4,44.55-47.79,36.85-55.31,73.81-110.56,110.69-165.86,1.72-2.58,3.11-5.4,4.55-8.16,1.18-2.26.34-7.19-1.5-8.73-2.38-2-4.71-4.13-7.33-5.76-11.44-7.1-24.04-11.13-37.2-13.62-19.41-3.67-38.82-3.98-58.23-.08-28.79,5.78-51.92,20.9-70.61,43.16-4.52,5.38-8.54,11.19-12.98,16.64-8.72,10.7-20.12,17.44-33.37,20.52-19.13,4.44-35.74-1.46-49.29-15.02-6-6-11.22-13.19-15.27-20.67-10.42-19.23-19.95-38.95-29.92-58.43-3.29-6.43-4.52-13.31-4.79-20.37-.48-12.43,4.97-21.02,16.65-25.52,15.8-6.08,31.96-7.04,48.26-2,2.97.92,5.78,2.38,8.71,3.46,18.52,6.79,37.55,10.74,57.39,9.94,26.7-1.07,53.17,2.34,79.5,5.62,27.87,3.48,55.5,9.12,83.11,14.4,19.17,3.67,38.17,8.23,57.2,12.59,6.07,1.39,12.24,2.85,17.94,5.27,11.03,4.68,17.43,13.03,17.17,25.47-.44,20.83-6.66,39.96-17.75,57.5-3.34,5.28-7.2,10.23-10.95,15.23-59.95,80.17-119.89,160.35-179.95,240.43-6.09,8.11-12.55,16.03-19.56,23.35-15.48,16.16-34.29,26.73-55.92,32.82-11.56,3.26-23.17,3.09-37.06,3.73Z"/>
  <path class="cls-1" d="M364.08,643.45c.77,3.01,2.31,5.5,1.64,7.06-2.13,5-5,9.69-7.72,14.42-7.4,12.87-15.12,25.55-22.19,38.6-2.93,5.42-5.09,11.42-6.56,17.41-1.36,5.53.26,11.13,4.71,14.96,4.1,3.52,8.48,7.17,13.38,9.22,29.95,12.53,60.34,14.72,91.27,3.18,19.29-7.2,36.33-18.04,52.21-30.85,12.77-10.3,25.22-21,37.86-31.47,12.04-9.97,24.08-19.93,36.25-29.72,2.36-1.9,5.28-3.25,8.15-4.32,1.18-.44,2.93.39,4.35.84,1.86.59,2.34,4.29.93,6.17-1.86,2.48-3.56,5.14-5.72,7.33-37.83,38.43-75.76,76.76-113.56,115.21-19,19.32-41.94,29.61-68.98,30.14-16.39.32-32.85.54-49.19-.52-21.19-1.37-41.49-7-60.73-16.16-7.22-3.44-13.34-8.03-17.27-15.21-6.12-11.15-6.98-22.19.45-33.12,13.62-20.04,27.54-39.87,43.58-58.08,12.98-14.74,27.44-27.81,44.15-38.23,3.91-2.44,8.17-4.34,12.99-6.87Z"/>
  <path class="cls-1" d="M622.48,668.21c-12.12,11.2-21.48,24.58-30.26,38.39-3.82,6-5.95,12.7-7.03,19.7-1.81,11.77,1.83,21.54,11.21,28.95,6.21,4.91,13.31,8.26,21.06,9.63,10.73,1.91,21.52,3.58,32.36,4.66,17.84,1.78,35.72,3.16,53.61,4.39,11.03.76,21.43,3.9,31.78,7.33,5.91,1.96,8.06,7.03,5.98,13.07-4.6,13.35-13.3,22.63-26.69,27.45-5.24,1.89-10.52,2.67-16.07,1.92-30.88-4.19-61.77-8.34-92.66-12.5-9.35-1.26-18.18-4.23-26.71-8.15-15.72-7.23-23.4-19.73-24.37-36.83-1.05-18.48,4-35.51,12.14-51.74,9.64-19.22,22.94-35.24,42.08-45.77,4.26-2.34,8.69-3.5,13.02,0l.56-.51Z"/>
  <path class="cls-1" d="M384.6,342.71c19.97-.03,34.66,7.34,46.57,20.75,1.72,1.94,2.76,5.64,1.54,6.09-1.38.51-3.06,1.26-4.34.91-19.33-5.31-38.62-10.77-57.91-16.25-.68-.19-1.27-.88-1.78-1.44-.5-.55-.87-1.22-1.24-1.87-.85-1.49-.23-2.52,1.36-3.68,5.31-3.86,11.34-4.62,15.79-4.5Z"/>
  <path class="cls-1" d="M621.91,668.72c0-.5.02-1,.03-1.49-1.29.04-1.15.37.48,1,.05-.02-.51.5-.51.5Z"/>
</svg>