<?xml version="1.0" encoding="UTF-8"?>
<svg id="Layer_1" data-name="Layer 1" xmlns="http://www.w3.org/2000/svg" viewBox="0 0 1000 1000">
  <defs>
    <style>
      .cls-1 {
        fill: #000;
        stroke-width: 0px;
      }
    </style>
  </defs>
  <path class="cls-1" d="M541.57,464.35c.43,61.02.79,122.04,1.34,183.06.11,12.51.78,25.02,1.46,37.51.16,3.02,1.11,6.1,2.25,8.92.4.99,2.7,2.1,3.7,1.79,2.9-.9,5.64-2.39,8.34-3.85,4.78-2.58,9.46-5.33,14.25-7.89.38-.21,1.4.32,1.83.78.46.49.86,1.37.75,1.98-.27,1.51-.56,3.14-1.34,4.41-13.96,22.68-29.21,44.43-46.98,64.33-12.59,14.1-26.58,26.6-43.04,35.95-22.78,12.94-46.97,21.21-73.66,20.03-3.12-.14-6.3-.17-9.33-.83-8.66-1.87-16.26-5.79-21.4-13.25-6.39-9.27-9.05-19.8-9.37-30.95-.14-4.76,4.6-9.05,9.28-8.29,10.02,1.64,19.99,3.64,30.04,5.14,6.16.92,12.41,1.63,18.62,1.63,6.76,0,12.12-3.58,14.97-9.61,2.31-4.88,4.11-10.2,5.04-15.52,3.38-19.25,6.37-38.57,9.38-57.88,4.34-27.8,8.77-55.6,12.79-83.45,4.02-27.85,7.57-55.78,11.36-83.67.84-6.2,2.1-12.35,2.67-18.57.85-9.32,1.39-18.68,1.8-28.03.23-5.3-3.35-6.43-7.76-5.36-1.52.37-3.06.68-4.57,1.08-13.81,3.68-15.46-2.12-18.84-11.21-1.78-4.79-.42-9.49,2.62-13.22,2.92-3.58,6.29-7.09,10.15-9.54,14.47-9.16,19.77-23.67,23.29-39.13.58-2.57-.86-6.34-2.63-8.53-2.39-2.94-5.93-4.99-9.11-7.25-6.8-4.82-10.45-11.41-11.48-19.6-1.67-13.19-3.43-26.36-5.08-39.55-1.85-14.74-3.53-29.5-5.49-44.23-.4-3.05-1.6-6.01-2.56-8.97-1.32-4.08-5.71-5.78-9.38-3.62-3.36,1.98-6.67,4.05-9.93,6.19-6.54,4.3-12.97,8.74-19.54,12.99-8.36,5.41-11.3,4.52-15.93-5.22-11.77-24.74-21.52-50.28-29.53-76.48-.23-.74-.31-1.53-.47-2.29-.37-1.7,2.11-5.15,3.77-5.26,1.55-.1,3.19-.62,4.64-.3,26.2,5.78,52.84,5.18,79.41,5.53,34.42.46,68.84.79,103.26,1.42,8.58.16,17.33.37,25.68,2.11,16.77,3.49,27.83,13.51,31.09,30.96,1.11,5.97-2.42,8.95-7.88,8.78-4.66-.14-9.32-.84-13.95-1.49-14.77-2.08-29.61-2.4-44.48-1.83-3.87.15-7.53,3.45-7.77,7.36-.61,10.13-1.35,20.28-1.37,30.43-.12,64.15-.06,128.31-.06,192.46-.28,0-.56,0-.84,0Z"/>
  <path class="cls-1" d="M593.94,762.92c-.23-11.83,2.09-23.13,7.32-33.79.81-1.64,4.91-2.19,6.12-.79,10.32,11.95,17.84,25.41,21.74,40.77,1.81,7.12.65,13.87-2.82,20.3-1.27,2.36-4.94,4.39-7.79,4.15-13.49-1.17-23.83-11.1-24.54-23.64-.13-2.33-.02-4.66-.02-7Z"/>
</svg>