<?xml version="1.0" encoding="UTF-8"?>
<svg id="Layer_1" data-name="Layer 1" xmlns="http://www.w3.org/2000/svg" viewBox="0 0 1000 1000">
  <defs>
    <style>
      .cls-1 {
        fill: #000;
        stroke-width: 0px;
      }
    </style>
  </defs>
  <path class="cls-1" d="M317.6,511.6c0,24.26.01,48.51,0,72.77,0,7.88.88,15.57,3.61,23.05,3.78,10.34,13.08,16.46,23.88,14.38,7.63-1.47,15.16-3.79,22.47-6.45,16.89-6.14,33.55-12.89,50.44-19.03,10.27-3.73,20.75-6.89,31.21-10.06,2.14-.65,4.81-.8,6.87-.1,1.97.68,3.94,2.49,5.03,4.32,1.18,2.01.81,4.65-1.15,6.33-2.95,2.53-5.98,5.02-9.21,7.16-44.5,29.48-91.72,53.66-141.69,72.44-11.01,4.14-22.19,7.49-34.2,7.14-8.99-.26-17.02-3-23.51-9.09-5.1-4.79-10.22-9.85-14.06-15.63-20.67-31.14-23.4-63.98-7.78-98.04,3.25-7.09,7.69-13.62,11.25-20.58,3.94-7.7,6.72-15.73,7.19-24.57.65-12.11-1.86-23.35-8.1-33.68-3.64-6.02-7.72-11.77-11.48-17.72-10.89-17.21-12.03-35.19-3.84-53.73,4.76-10.77,10.51-21.01,18.44-29.82,12.68-14.09,28.27-22.02,47.55-21.4,7.02.22,14.19.29,20.98,1.81,13.13,2.92,26.39,2.88,39.67,3.35,15.32.54,29.32-3.83,42.73-10.7,1.39-.71,2.69-1.59,4.03-2.41,10.09-6.19,20.7-10.94,32.58-12.57,2.18-.3,4.24-1.74,6.23-2.88.47-.27.57-1.46.54-2.21-.03-.56-.41-1.44-.86-1.61-9.58-3.64-19.6-5.05-29.76-5.88-31.77-2.6-56.1-17.85-73.94-43.91-6.65-9.71-11.8-20.22-16.3-31.11-13.02-31.49,5.54-62.77,33.87-71.13,21.32-6.3,38.71-.53,53.03,15.09,6.25,6.81,11.04,15.16,15.53,23.35,13.15,24,25.82,48.27,38.68,72.43,51.8,97.33,103.56,194.69,155.46,291.97,5.88,11.02,12.43,21.69,18.84,32.41,2.01,3.36,7.77,2.43,9.53-1.3.33-.71.62-1.44.94-2.15,6.54-14.35,10.68-29.53,12.68-45.01,3.55-27.43,2.24-54.66-7.74-80.94-2.22-5.84-4.27-11.75-6.32-17.66-12.27-35.38-16.57-71.48-9.71-108.56,1.7-9.21,3.4-18.44,5.48-27.57,6.23-27.44,12.63-54.84,19.02-82.24,1.6-6.85,3.34-13.66,5.19-20.45,1.04-3.82,5.27-6.18,9.09-5.44,10.35,2,18.99,7.11,25.94,14.87,3.69,4.12,5.9,9.16,6.27,14.88.57,8.68-.16,17.07-3.16,25.38-6.96,19.25-16.83,36.96-27.58,54.26-7.01,11.29-14.04,22.57-20.81,34.01-6.27,10.59-7.53,22.19-4.99,34.02,1.13,5.26,3.33,10.43,5.83,15.25,6.83,13.19,14.14,26.14,21.13,39.25,4.78,8.97,9.56,17.95,13.92,27.13,14.39,30.31,16.05,61.63,7.07,93.75-10.64,38.06-30.64,69.98-61.89,94.51-7.41,5.82-15.24,10.88-24.38,13.76-6.29,1.98-12.19,1.67-18.3-.67-5.98-2.28-11.16-5.66-15.65-10.09-38.94-38.4-61.74-84.11-62.89-139.53-.23-10.95.05-21.91-.03-32.86-.04-4.68-.33-9.37-.62-14.05-.2-3.23-2.66-5.93-5.69-6.43-10.79-1.78-21.66-3.18-32.36-5.4-15.35-3.18-27.35-11.47-34.55-25.64-3.54-6.97-5.94-14.47-6.33-22.43-.54-10.96-.59-21.88,1.79-32.7,1.68-7.64,3.19-15.32,4.58-23.01,1.06-5.88-2.49-8.48-8.57-6.28-5.14,1.86-10.21,3.93-15.28,5.97-23.21,9.29-46.13,19.44-69.72,27.64-18.36,6.38-26.08,18.23-25.86,36.97.3,25.03.07,50.08.07,75.11h-.28Z"/>
  <path class="cls-1" d="M780.71,725.38c0,16.39.35,32.78-.15,49.16-.26,8.52-1.49,17.1-3.25,25.45-2.12,10.06-9.04,16.36-18.89,18.68-17.63,4.16-35.59,4.43-53.56,3.07-9.33-.71-18.65-1.82-27.91-3.2-30.53-4.56-54.1-28.18-58.12-59-1.2-9.19-.94-18.74,0-27.98,1.2-11.91,7-22.19,14.37-31.53,6.82-8.64,14.82-15.97,23.89-22.24,25.34-17.54,53.62-28.41,82.95-36.9,6.8-1.97,13.73-2.5,20.8-.72,8.35,2.11,13.71,7.28,16.18,15.27,2.55,8.26,3.18,16.84,3.14,25.47-.05,14.83-.01,29.66-.01,44.48.19,0,.38,0,.57,0Z"/>
  <path class="cls-1" d="M313.12,762.21c-.22-6.01.72-12.17,4.26-17.56,4.27-6.5,8.46-13.12,13.39-19.1,16.37-19.84,33.05-39.43,49.66-59.08,2-2.37,4.27-4.52,6.48-6.7,2.27-2.25,6.59-2.85,8.41-1.27,1.88,1.64,2.51,5.55,1.23,8.7-1.46,3.61-2.94,7.21-4.61,10.73-15.34,32.39-30.71,64.76-46.13,97.11-1.67,3.5-3.55,6.93-5.63,10.19-4.06,6.38-12.73,6.57-17.96.69-5.95-6.69-9.13-14.39-9.1-23.72Z"/>
</svg>