<?xml version="1.0" encoding="UTF-8"?>
<svg id="Layer_1" data-name="Layer 1" xmlns="http://www.w3.org/2000/svg" viewBox="0 0 1000 1000">
  <defs>
    <style>
      .cls-1 {
        fill: #000;
        stroke-width: 0px;
      }
    </style>
  </defs>
  <path class="cls-1" d="M170.57,502.92c-.58-32.76,7.59-63.57,20.22-93.36,2.73-6.44,6.25-12.66,10.16-18.47,14.95-22.16,36.43-33.62,62.55-36.96,4.64-.59,9.37-.48,14.06-.64,28.93-1,57.85-2.11,86.78-2.92,25.02-.7,50.06-1.13,75.09-1.49,14.14-.2,27.98,1.97,41.33,6.75.56.2.97,1.06,1.29,1.7.93,1.89.43,3.07-1.36,3.56-.75.2-1.44.64-2.19.76-19.29,3.13-38.53,6.56-57.88,9.26-29.42,4.12-58.72,8.81-87.85,14.64-10.01,2-19.82,4.38-28.93,9.17-9.82,5.15-15.33,13.2-16.09,24.18-.43,6.22-.39,12.52-.01,18.75,2.92,47.63,6.04,95.24,8.96,142.87.49,7.93,1.99,15.56,5.6,22.6,4.63,9.04,11.93,14.3,22.46,14.21,7.07-.07,14.05-.6,20.59-3.74,9.86-4.73,19.94-9.02,29.62-14.07,22.87-11.93,45.53-24.25,68.35-36.28,5.5-2.9,11.25-5.34,16.95-7.82,2.57-1.12,5.77.18,7.98,3.37.72,1.03,1.08,3.34.45,4.09-1.95,2.32-4.2,4.59-6.78,6.13-18.13,10.81-36.35,21.47-54.59,32.1-25.67,14.96-51.33,29.94-77.09,44.74-9.48,5.45-19.1,10.72-28.95,15.45-7.01,3.37-14.36,6.27-21.84,8.41-20.43,5.86-38.78,1.7-54.03-13.35-4.97-4.9-9.47-10.49-13.22-16.38-26.63-41.87-40.79-87.57-41.62-137.26Z"/>
  <path class="cls-1" d="M714.87,807.81c-17.16,0-34.33-.13-51.49.05-10.26.11-20.2-1.78-29.99-4.42-4.46-1.2-8.92-2.98-12.9-5.32-21.93-12.9-24.98-31.37-20.91-49.85,1.16-5.27,3.56-10.31,5.77-15.3,12.51-28.22,30.25-52.67,53.4-73.13,14.64-12.94,30.25-24.67,46.87-34.92,17.91-11.04,36.11-21.62,54.39-32.05,9.73-5.56,20.47-7.21,31.64-5.98,10.92,1.2,19.11,6.8,24.25,16.23,2.94,5.4,5.32,11.41,6.47,17.43,2.19,11.47,3.87,23.1,4.77,34.75,2.82,36.61,3.12,73.26.75,109.92-.25,3.88-.39,7.87-1.43,11.58-2.39,8.59-7.6,15.3-15.24,19.96-12.32,7.51-25.88,10.68-40.15,10.88-15.6.22-31.21.12-46.81.16-3.12,0-6.24,0-9.36,0v.02ZM677.63,763.09c7.01-.57,14.92-.48,22.51-1.98,13.11-2.59,22.64-9.78,26.47-23.41,5.03-17.91,4.33-35.51-2.49-52.72-1.68-4.25-4.4-8.34-7.5-11.72-8.66-9.43-19.67-12.91-31.91-9.09-26.1,8.14-44.61,24.85-54.51,50.64-7.37,19.21,1.06,41.01,25.69,46.11,6.83,1.41,13.94,1.44,21.73,2.18Z"/>
  <path class="cls-1" d="M507.58,192.14c24.2.48,48.44.26,72.6,1.61,36.22,2.02,67.94,16.4,96.5,38.16,8.82,6.72,15.62,15.15,19.71,25.69,4.16,10.72,4.38,21.27.03,31.94-6.51,15.95-17.82,27.19-33.46,34.19-2.7,1.21-7-.74-7.52-3.46-1.63-8.42-2.82-16.95-4.9-25.26-1.88-7.54-4.09-15.11-7.22-22.19-10.05-22.76-27.49-37.74-51.09-45-31-9.53-61.83-7.79-91.72,4.56-26.11,10.79-40.35,31.04-43.69,58.98-1.02,8.52-1.52,17.09-2.49,25.61-.46,4.04-4.14,7.02-8.15,6.91-50.3-1.39-80.46-30.65-90.64-70.35-1.53-5.95-1.65-12.39-1.58-18.59.14-13.79,7.23-23.67,18.98-30.15,7.59-4.18,15.9-5.97,24.67-6.58,28.83-2.02,57.63-4.47,86.56-4.56,7.81-.03,15.61,0,23.42,0,0-.5,0-1,.01-1.5Z"/>
  <path class="cls-1" d="M445.27,803.71c-28.05,1.01-50.93-5.78-72.08-18.83-9.41-5.81-17.59-13.03-24.36-21.76-10.61-13.7-12.37-28.59-4.14-43.85,5.18-9.59,10.87-19.13,17.76-27.52,19.82-24.18,40.35-47.78,60.65-71.57,1-1.17,2.27-2.61,3.61-2.86,2.12-.4,4.55-.31,6.55.42.96.35,1.93,2.74,1.7,3.98-1.02,5.34-2.2,10.68-3.83,15.87-4.67,14.91-9.59,29.73-14.4,44.6-2.92,9.03-4.09,18.26-3.26,27.75.56,6.4,2.53,12.31,6.33,17.41,9.62,12.9,21.94,21.86,37.62,26.39,12.85,3.71,24.87,1.67,36.31-4.13,6.92-3.51,13.59-7.82,19.65-12.67,17.08-13.69,33.86-27.75,50.61-41.84,13.76-11.58,27.26-23.46,40.98-35.09,2.33-1.98,5.16-3.39,7.84-4.94.49-.29,1.44-.15,2.02.13,1.71.84,2.32,2.33,1.43,3.95-1.48,2.69-2.87,5.54-4.86,7.83-8.19,9.45-16.49,18.82-24.93,28.05-20.07,21.91-40.17,43.8-60.43,65.53-6.92,7.43-14.31,14.43-21.58,21.53-14.69,14.36-32.45,21.3-52.89,21.64-3.13.05-6.25,0-6.31,0Z"/>
  <path class="cls-1" d="M614.26,480.57c15.64,0,31.28.01,46.91,0,9.65,0,18.48,2.99,26.72,7.65,14.77,8.35,22.72,20.95,23.1,38.13.3,13.6-2.46,26.5-9.33,38.24-10.28,17.57-22.69,33.65-35.53,49.4-.87,1.07-2.71,1.38-4.14,1.94-2.48.97-6.86-2.1-6.68-4.68.16-2.32.03-4.74.67-6.93,2.87-9.74,5.97-19.41,8.99-29.11,1.16-3.72,2.44-7.41,3.47-11.18,1.53-5.61-1.19-9.69-6.53-9.29-7.76.59-15.56,1.28-23.19,2.7-24.62,4.59-49.3,8.46-74.46,7.8-5.46-.14-10.95-.32-16.36-1-8.45-1.06-13.79-6.73-15.17-15.39-2.6-16.41-1.47-32.75.99-49.05.34-2.27,1.08-4.7,2.35-6.56,1.71-2.5,3.71-5.56,6.3-6.56,8.73-3.39,17.72-6.01,27.32-5.9,14.85.17,29.71.04,44.57.04v-.25Z"/>
</svg>