<?xml version="1.0" encoding="UTF-8"?>
<svg id="Layer_1" data-name="Layer 1" xmlns="http://www.w3.org/2000/svg" viewBox="0 0 1000 1000">
  <defs>
    <style>
      .cls-1 {
        fill: #000;
        stroke-width: 0px;
      }
    </style>
  </defs>
  <path class="cls-1" d="M542.99,246.87c-9.35.75-18.79.96-28.04,2.34-24.35,3.63-44.06,15.59-58.81,35.22-5.61,7.47-10.22,15.72-14.98,23.79-3.57,6.06-6.51,12.48-9.99,18.6-1.99,3.5-5.02,5.91-9.3,6.27-27.95,2.36-50.42-8.1-68.05-29.44-2.95-3.57-5.36-7.74-7.26-11.97-9.64-21.38-18.97-42.9-28.56-64.3-3.31-7.39-4.13-15-3.25-22.91,1.25-11.23,10.29-20.07,21.58-21.38,7.94-.92,15.52.56,23.14,2.59,10.56,2.81,21.15,5.56,31.84,7.81,29.2,6.15,58.95,7.19,88.61,8.71,17.96.92,35.97,1.3,53.96,1.4,39.49.21,77.75,7.03,114.86,20.46,6.61,2.39,13.45,4.27,19.79,7.24,4.13,1.93,7.9,5.04,11.19,8.27,3.37,3.31,5.24,7.69,5.62,12.59.55,7.11.02,14.06-2.35,20.82-3.11,8.85-6.12,17.73-9.36,26.54-18.87,51.36-38.04,102.6-56.58,154.07-9,24.99-16.93,50.37-25.22,75.62-6.6,20.11-14.86,39.5-24.89,58.14-31.1,57.85-62.2,115.71-93.34,173.54-2.96,5.51-5.95,11.02-9.34,16.27-3.38,5.25-7.1,10.31-10.98,15.21-16.07,20.26-37.25,27.73-62.43,23.86-11.6-1.78-22.81-5.35-33.46-10.45-4.51-2.16-6.14-6.93-3.66-11.8,4.98-9.75,10.08-19.44,15.31-29.05,81.53-149.71,163.09-299.39,244.61-449.1,4.86-8.92,9.46-18,13.99-27.09,2.49-5,3.28-10.41,2.69-15.99-.53-4.97-2.72-9.17-7.14-11.45-4.82-2.49-9.86-5.21-15.1-6.11-21.56-3.7-43.09-7.94-65.14-8.3Z"/>
  <path class="cls-1" d="M483.99,381.37c-3.91-1.19-9.94-2.82-15.82-4.88-14-4.88-27.93-9.96-41.87-14.99-1.88-.68-2.66-1.96-1.91-3.29.74-1.3,1.6-2.9,2.83-3.51,13.78-6.82,27.13-5.17,40.28,2.07,9.06,4.98,16.8,11.4,22.84,19.76.69.96.4,2.77.2,4.14-.06.43-1.28.84-2.03.98-.74.14-1.54-.07-4.51-.29Z"/>
</svg>