<?xml version="1.0" encoding="UTF-8"?>
<svg id="Layer_1" data-name="Layer 1" xmlns="http://www.w3.org/2000/svg" viewBox="0 0 1000 1000">
  <defs>
    <style>
      .cls-1 {
        fill: #000;
        stroke-width: 0px;
      }
    </style>
  </defs>
  <path class="cls-1" d="M480.64,281.14c-16.64.71-28.4,8.75-35.12,23.38-4.54,9.89-7.46,20.53-11.34,30.74-1.78,4.69-5.39,7.53-10.48,8.24-.77.11-1.54.32-2.32.33-21.35.5-42.09-2.78-61.95-10.67-13.33-5.3-24.71-13.64-33.47-25-17.27-22.43-25.27-48.21-26.14-76.3-.22-7.12,1.39-13.94,5.07-20.22,6-10.25,14.69-15.94,26.68-16.3,7.1-.21,13.88,1,20.71,3.21,14.85,4.81,29.9,8.88,45.36,11.6,27.03,4.75,54.25,7.05,81.6,8.25,11.72.52,23.49.2,35.18.95,24.95,1.61,50,2.6,74.47,8.35,9.86,2.32,19.71,4.91,29.28,8.22,18.45,6.38,36.69,13.36,55.03,20.08,1.47.54,3,.91,4.43,1.51,19.65,8.27,27.25,23.45,19.68,46.04-5,14.93-14.26,27.7-26.7,37.81-1.49,1.21-5.07.4-6-1.54-2.34-4.91-4.59-9.86-6.85-14.8-2.92-6.39-5.41-13.02-8.8-19.15-13.33-24.12-34.49-35.26-61.53-36.11-6-.19-9.24,2.48-10.06,7.76-1.92,12.35-3.59,24.76-4.9,37.19-5.43,51.46-5.88,103.03-3.36,154.68,3.09,63.31,2.66,126.69,3.27,190.04.24,24.43-2.76,48.43-10.48,71.63-10.27,30.86-28.98,55.17-57.68,71.17-2.62,1.46-5.84,2.37-8.81,2.45-1.85.05-4.72-1.53-5.41-3.12-1.19-2.74-1.42-6.06-1.4-9.14.38-67.27.46-134.55,1.51-201.81.43-27.34,2.5-54.64,5.93-81.87,3.12-24.8,4.87-49.81,6.42-74.77,1.22-19.68-4.73-28.52-22.8-36.33-5.72-2.47-11.75-4.23-17.71-6.12-14.89-4.71-29.86-9.19-44.71-14.02-5.13-1.67-10.06-4.02-14.99-6.25-1.78-.8-1.94-2.43-.85-4.02.4-.59.7-1.51,1.25-1.71,13.11-4.74,26.25-3.49,39.14.58,11.17,3.52,22.07,7.86,33.11,11.8,3.67,1.31,7.36,2.56,11.05,3.78,1.81.6,5.21-1.42,5.44-3.11.3-2.3,1.02-4.63.88-6.91-1.64-28.1-3.56-56.19-8.74-83.92-.41-2.18-1.8-4.17-2.89-6.61Z"/>
</svg>