<?xml version="1.0" encoding="UTF-8"?>
<svg id="Layer_1" data-name="Layer 1" xmlns="http://www.w3.org/2000/svg" viewBox="0 0 1000 1000">
  <defs>
    <style>
      .cls-1 {
        fill: #000;
        stroke-width: 0px;
      }
    </style>
  </defs>
  <path class="cls-1" d="M327.74,349.15c28.1-.48,56.21-.06,84.23-3.76,12.3-1.63,24.99-1.25,37.44-.62,12.66.63,24.46,4.73,34.57,12.83,2.11,1.69,3.11,4.41,2.32,5.97-1.31,2.59-3.66,2.35-5.83,2.37-3.12.03-6.26-.06-9.36-.35-40.98-3.84-81.04,1.68-120.56,12.1-13.57,3.58-27.05,7.57-40.4,11.89-6.63,2.15-13.19,4.94-19.24,8.39-9.74,5.55-14.24,14.46-12.57,25.63,1.15,7.69,2.87,15.4,5.31,22.77,7.21,21.85,9.17,44.26,8.22,67.07-.39,9.38-1.13,18.67-3.46,27.85-1.92,7.56-3.3,15.27-4.58,22.98-2.34,14.13-.96,28.04,3.13,41.71.45,1.49,1,2.96,1.61,4.39,4.97,11.64,16.52,17.71,28.66,14.35,5.97-1.65,11.73-4.26,17.31-7.01,11.91-5.85,23.63-12.1,35.44-18.13,21.55-11.01,43.06-22.11,64.71-32.91,8.36-4.17,16.99-7.84,25.65-11.37,5.88-2.4,12.47,2.95,12.65,10.07.03,1.37-.71,3.31-1.75,4.06-4.39,3.17-8.86,6.32-13.61,8.89-36.43,19.63-72.92,39.12-109.41,58.64-15.15,8.1-30.22,16.34-45.53,24.12-8.33,4.23-17,7.81-25.66,11.35-15.83,6.47-30.6,3.28-44.64-5.45-9.43-5.87-17.35-13.45-23.46-22.63-26.93-40.51-43.4-84.4-44.16-133.73-.6-39.1,8.69-75.76,24.29-111.2,14.45-32.82,40.61-48.36,75.4-50.43,13.23-.79,26.55.08,39.84.15,7.81.04,15.63,0,23.44,0Z"/>
  <path class="cls-1" d="M658.21,798.57c-11.07.06-21.93-.64-32.28-4.95-15.07-6.28-23.73-17.09-24.47-33.86-.52-11.95,1.29-23.26,6.55-34.11,10.71-22.1,24.42-41.57,44.48-56.47,35.14-26.08,69.83-52.76,104.69-79.22,7.51-5.7,15.43-10.52,24.41-13.68,9.49-3.34,18.46-2.46,27.16,2.15,11.47,6.07,19.83,14.89,24.14,27.41,2.64,7.66,3.23,15.29.92,23.01-1.57,5.22-3.09,10.57-5.6,15.37-18.81,36-37.74,71.94-56.86,107.78-12.72,23.84-33.61,36.68-59.56,40.95-17.7,2.91-35.72,3.83-53.59,5.63Z"/>
  <path class="cls-1" d="M482.78,188.65c24.21,0,48.42.17,72.63-.05,19.76-.18,38.84,3.7,57.49,9.56,34.04,10.7,56.9,40.69,59.68,76.35,2.8,35.89-11.3,63.69-39.45,85.04-.92.7-3.11.54-4.25-.07-1.1-.59-2.14-2.22-2.28-3.5-1.05-9.39.41-18.63,1.44-27.96,1.36-12.39,2.28-24.9,2.16-37.35-.15-15.74-7.22-28.62-19.76-38.14-20.41-15.48-43.62-24.26-69.01-26.49-14.75-1.3-29.52-.86-44.16,3.08-19.53,5.26-32.94,17.03-41.29,35.08-4.63,10-6.7,20.77-9.19,31.4-1.07,4.56-1.6,9.23-2.55,13.82-2.36,11.31-7.13,15.34-17.58,13.33-10.68-2.05-21.53-3.24-31.88-7.26-35.43-13.76-57.65-45.05-58.21-82.86-.02-1.56.05-3.12.16-4.68,1.27-17.33,9.38-31.34,31.52-34.73,15.45-2.37,30.87-4.42,46.59-4.2,22.64.31,45.3.08,67.95.08v-.42Z"/>
  <path class="cls-1" d="M677.07,523.58c.14-12.65-4.66-26.74-9-40.96-2.73-8.92-8.43-16.85-8.84-26.48-.04-.92,1.75-2.52,2.89-2.73,1.35-.24,3.09.37,4.34,1.15,29.92,18.54,43.99,45.54,42.81,80.6-.46,13.64-5.09,26.03-11.92,37.61-2.77,4.69-6.15,9.07-9.6,13.31-47.48,58.24-96.48,115.15-149.42,168.56-7.71,7.78-15.36,15.65-23.49,22.97-6.95,6.27-14.09,12.54-21.95,17.54-21.91,13.93-45.48,19.33-71.66,14.55-26.9-4.91-50.4-16.21-71.67-32.88-1.84-1.45-3.64-2.97-5.33-4.59-10.21-9.79-13.38-26.06-7.33-38.91,1.99-4.22,4.44-8.29,7.12-12.12,22.44-32.03,44.94-64.02,67.53-95.94,2.23-3.15,4.81-6.25,7.86-8.53,1.43-1.07,4.48-.57,6.54.07.99.31,2.01,2.63,1.9,3.95-.32,3.84-.75,7.78-1.94,11.41-6.08,18.57-12.24,37.11-18.73,55.54-3.73,10.59-4.34,21.37-3.62,32.38,1.24,18.81,16.35,34.16,33.26,37.74,14.41,3.05,28,.49,41.53-3.49,15.28-4.5,28.41-12.82,39.68-24.11,15.48-15.5,31.09-30.88,46.53-46.42,24.83-24.97,49.55-50.04,74.37-75.02,7.74-7.79,15.11-15.87,21.01-25.17,11.14-17.57,17.58-36.55,17.13-60.06Z"/>
  <path class="cls-1" d="M752.29,398.44c-.31,6.19-.31,12.42-1,18.56-.84,7.49-8.3,14.38-15.65,15.03-6.23.55-12.38.42-18.28-2.16-17.76-7.77-35.59-15.4-53.3-23.27-2-.89-3.54-2.9-5.14-4.54-1.65-1.69-1.86-6.96-.39-8.76,1.46-1.77,2.79-3.89,4.68-5.04,13.92-8.46,27.89-16.84,42-24.99,8.31-4.79,17.46-6.12,26.99-5.53,9.46.59,16.49,6.09,18.04,15.15.91,5.33,1.09,10.8,1.43,16.22.19,3.09.03,6.21.03,9.31.2,0,.39.01.59.02Z"/>
</svg>