<?xml version="1.0" encoding="UTF-8"?>
<svg id="Layer_1" data-name="Layer 1" xmlns="http://www.w3.org/2000/svg" viewBox="0 0 1000 1000">
  <defs>
    <style>
      .cls-1 {
        fill: #000;
        stroke-width: 0px;
      }
    </style>
  </defs>
  <path class="cls-1" d="M480.01,706.46c.5-23.44.39-46.92,1.67-70.32,1.46-26.52,4.16-52.96,6.32-79.44.89-10.9,1.87-21.8,2.62-32.71.27-3.89.07-7.81-.08-11.71-.2-5.28-3.22-8.88-8.19-9.91-9.17-1.89-18.46-3.32-27.48-5.76-6.72-1.82-13.43-4.28-19.54-7.59-14.36-7.76-23.97-19.84-28.94-35.39-2.86-8.94-4.68-18.08-4.78-27.6-.22-20.59,3.59-40.39,10.78-59.59,1.16-3.1,3.83-4.97,7.1-5.37,14.93-1.8,27.82,3.07,38.69,13.03,5.15,4.72,10,10,13.95,15.74,6.62,9.64,12.53,19.77,18.5,29.84,4.38,7.39,8.27,15.06,12.57,22.5,3.92,6.78,8.46,13.14,14.39,18.38,5.72,5.06,11.36,7.54,17.19-1.81,14.88-23.87,29.77-47.73,44.66-71.59,21.93-35.13,43.86-70.25,65.8-105.38,2.9-4.64,5.82-9.26,8.73-13.9,10.68-17.05,11.58-15.97,29.56-6,4.69,2.6,8.78,6.49,12.7,10.26,6.29,6.03,7.32,13.57,4.69,21.61-.96,2.93-2.3,5.85-4.01,8.41-3.91,5.82-7.77,11.74-12.32,17.06-38.17,44.63-64.46,95.65-82.17,151.38-9.95,31.32-16.83,63.37-23.25,95.54-5.51,27.6-9.15,55.48-12.62,83.38-.96,7.75-1.6,15.57-1.7,23.37-.21,15.71-2.97,31.12-5.18,46.57-1.78,12.43-6.22,24.18-12.73,35.02-13.65,22.73-32.87,39.44-56.11,51.75-1.3.69-3.11.96-4.55.7-1.39-.25-3.49-1.22-3.76-2.26-.96-3.73-1.75-7.63-1.77-11.47-.14-28.92-.07-57.84-.07-86.76-.22,0-.43,0-.65,0Z"/>
  <path class="cls-1" d="M441.64,345.2c-32.76,5.78-60.32-3.31-83.25-26.8-3.27-3.35-6.47-6.77-9.45-10.37-16.93-20.49-31.22-42.84-45.66-65.08-3.43-5.29-5.57-11.08-5.53-17.6.03-5.77,1.79-10.76,5.8-14.83,9.66-9.79,21.63-15.26,35-17.34,7.4-1.15,13.94,2.16,18.77,7.65,4.09,4.65,7.59,9.9,10.85,15.19,22.5,36.51,44.9,73.08,67.25,109.68,2.43,3.98,4.69,8.12,6.39,12.44.76,1.92-.06,4.47-.18,7.07Z"/>
</svg>