<?xml version="1.0" encoding="UTF-8"?>
<svg id="Layer_1" data-name="Layer 1" xmlns="http://www.w3.org/2000/svg" viewBox="0 0 1000 1000">
  <defs>
    <style>
      .cls-1 {
        fill: #000;
        stroke-width: 0px;
      }
    </style>
  </defs>
  <path class="cls-1" d="M640.03,364.5c-.87-20.3-1.69-40.61-2.64-60.91-.33-7.06-1.82-13.86-4.52-20.49-5-12.28-13.37-21.49-25.7-25.81-42.67-14.94-83.07-10.96-119.95,16.52-14.04,10.47-21.43,24.55-20.7,42.41.1,2.34.1,4.69.29,7.03,1.15,14.03-1.58,16.21-16.28,10.65-19.2-7.26-36.47-17.97-51.83-31.48-24.37-21.45-39-48.46-44.29-80.5-1.02-6.17-1.95-12.37-2.48-18.59-1-11.64,3.17-16.33,14.27-16.02,7.02.2,14.04.88,21.05,1.45,10.9.89,21.81,1.79,32.7,2.84,21.78,2.09,43.57,4.11,65.31,6.49,20.97,2.3,41.92,4.79,62.82,7.6,27.86,3.75,55.72,7.49,83.29,13.13,10.85,2.22,21.02,6.11,30.53,11.57,12.54,7.2,22.34,17.09,27.17,31.08,1.52,4.39,2.94,8.96,3.39,13.55,2.31,23.87-1.42,46.75-12.27,68.29-2.81,5.58-5.97,10.99-8.79,16.57-5.36,10.61-8.26,21.91-8.78,33.78-.59,13.52,1.69,26.5,8.13,38.52,2.58,4.82,5.37,9.55,8.39,14.1,13.7,20.63,14.09,42.42,5.98,65.02-10.29,28.65-29.03,49.47-56.84,62.26-21.06,9.69-42.81,14.69-66.01,11.51-5.39-.74-10.71-2.08-16.03-3.26-13.04-2.89-22.53-10.29-28.37-22.37-1.35-2.79-3.15-5.35-4.79-7.99-1.01-1.63-4.65-1.28-6.06.6-1.87,2.48-3.86,4.89-5.52,7.51-7.11,11.22-14.45,22.32-21.05,33.84-4.97,8.68-11.33,14.22-21.45,16.39-26.05,5.6-50.81,15.07-75.06,26.11-11.32,5.15-23.14,9.36-35.43,12.05-7.93,1.74-15.47,1.33-23.07-1.21-10.76-3.59-16.57-11.08-18.1-22.22-1.3-9.47.39-18.73,1.84-27.98,1.45-9.26,3.45-18.43,5.07-27.66,2.03-11.54,4.09-23.08,5.82-34.67,2.09-14,2.1-28.11.22-42.1-1.77-13.15-4.34-26.19-6.56-39.27-1.04-6.17-2.64-12.3-3-18.51-.83-14.4,4.66-25.95,17.18-33.63,3.31-2.03,6.89-3.7,10.48-5.19,38.25-15.89,77.33-29.27,117.29-40.31,16.36-4.52,30.78-2.46,44.87,5.94,3.35,2,6.62,4.15,9.86,6.31,3.36,2.24,5.18,5.79,4.23,7.54-1.26,2.34-3.41,2.77-5.67,3.19-9.21,1.72-18.47,3.25-27.6,5.31-6.07,1.37-12.15,3.07-17.92,5.41-21.65,8.77-35.67,24.7-42.71,46.87-.47,1.49-.75,3.04-1.09,4.56-5,22.13-8.05,44.58-11.08,67.04-.46,3.4,4.03,7.87,7.48,7.31,11.54-1.88,23.09-3.76,34.56-6.01,27.59-5.42,55.14-11.05,83.02-14.79,10.04-1.35,20.25-1.82,30.39-1.85,11.12-.04,21.81-2.27,32.29-5.31,18.52-5.37,31.44-17.04,36.66-36.05,1.85-6.74,3.22-13.68,4.1-20.62,2.78-21.77,2.88-43.67,2.96-65.59Z"/>
  <path class="cls-1" d="M353.51,787.02c.39-17.49,5.16-34.02,12.5-49.64,5.29-11.27,11.59-22.16,18.43-32.58,16.37-24.96,36.29-46.94,58.55-66.79,2.85-2.54,6.43-4.27,9.75-6.24.56-.33,1.85-.29,2.25.11.95.99,2.19,2.29,2.19,3.47.01,3.09-.25,6.26-.97,9.27-12.16,50.86-24.38,101.71-36.72,152.53-1.09,4.5-2.96,8.86-4.87,13.1-.5,1.11-2.46,1.84-3.89,2.2-1.45.37-3.12.3-4.62.02-13.8-2.6-27.67-4.89-41.34-8.08-8.97-2.09-10.99-4.4-11.25-15.02-.02-.78,0-1.56,0-2.34Z"/>
</svg>