<?xml version="1.0" encoding="UTF-8"?>
<svg id="Layer_1" data-name="Layer 1" xmlns="http://www.w3.org/2000/svg" viewBox="0 0 1000 1000">
  <defs>
    <style>
      .cls-1 {
        fill: #000;
        stroke-width: 0px;
      }
    </style>
  </defs>
  <path class="cls-1" d="M472.52,186.02c14.39-1.44,28.16,2.14,41.72,5.63,23.73,6.11,39.43,21.34,47,44.85,5.39,16.72,6.96,33.56,3.21,50.87-1.82,8.39-2.93,16.94-4.32,25.42-7.22,44.32,1.86,85.49,24.39,123.92,4.73,8.07,10.08,15.85,15.73,23.32,17.98,23.78,27.11,50.97,30.71,80.1,2.81,22.79-3.53,43.5-17.87,61.4-4.84,6.04-10.91,11.14-16.71,16.34-4.75,4.25-8.42,3.47-11.11-1.75-.36-.7-.76-1.38-1.05-2.1-7.02-16.96-8.19-15.22-24.61-9.53-16.97,5.88-33.68,12.52-50.57,18.61-11.04,3.98-22.26,7.45-34.03,8.44-5.43.46-10.92.56-16.36.3-11.42-.53-21.27-5.24-29.33-13.09-5.57-5.43-10.49-11.58-15.3-17.72-4.34-5.53-8.08-11.53-12.21-17.22-3.72-5.12-7.44-5.59-11.59-1.66-1.13,1.07-2.23,2.19-3.27,3.35-13.5,14.99-30.49,24.78-49.58,29.92-28.69,7.73-56.93,16.77-85.18,25.89-2.23.72-4.52,1.28-6.82,1.69-6.19,1.1-14.65-5.06-15.67-11.4-1.77-10.96-1.44-21.84,1.88-32.49,2.79-8.95,5.7-17.87,8.72-26.76,12.05-35.52,24.05-71.06,36.33-106.5,4.35-12.55,8.96-25.04,14.31-37.19,14.53-33,40.64-50.59,75.91-55.07,17.83-2.26,35.76-3.78,53.63-5.75,4.59-.5,9.5-.39,13.19-3.8.93-.86,1.13-2.63,1.4-4.03.13-.66-.2-1.57-.62-2.15-1.36-1.89-2.71-3.83-4.33-5.5-32.33-33.23-39.41-73.5-31.94-117.37,3.51-20.62,15.1-36.02,35.2-43.42,8.73-3.21,18-5.39,27.49-5.56,3.91-.07,7.82-.01,11.67-.01ZM521.62,551.35c10.15,0,20.29.04,30.44-.01,6.31-.03,12.37-1.3,18.21-3.79,5.13-2.18,8.22-6.2,6.66-13.2-.67-3.01-1.58-6.08-3-8.79-3.63-6.9-7.52-13.66-11.48-20.38-14.28-24.22-27.14-49.14-38.28-74.98-17.7-41.08-28.65-84.05-36.88-127.85-3.17-16.86-6.56-33.68-10.08-50.47-.62-2.95-2.18-5.8-3.77-8.42-.67-1.1-2.81-2.27-3.84-1.96-2.01.61-5,1.95-5.36,3.5-5.21,22.85-7.97,46.11-9.8,69.43-1.16,14.77-1.1,29.64,2.21,44.29.85,3.79,1.27,7.7,1.56,11.59,1.04,13.97-3.36,26.27-12.63,36.56-4.66,5.17-10.15,9.68-15.65,14-7.36,5.78-15.24,10.9-22.63,16.64-5.53,4.3-11.14,8.67-15.84,13.82-17.22,18.88-20.84,41.1-14.93,65.38.68,2.81,4.8,4.56,7.66,3.19,4.21-2.01,8.42-4.05,12.46-6.38,9.46-5.46,18.74-11.22,28.23-16.62,5.2-2.96,9.36-1.28,10.78,4.04,1.8,6.78,3.07,13.73,5.21,20.4,4.64,14.49,14,23.46,29.51,26.7,17.01,3.56,34.08,3.7,51.25,3.29Z"/>
  <path class="cls-1" d="M715.91,814.23c-5.77,0-10.45.19-15.11-.04-11.17-.56-19.07-6.51-24.02-16.1-2.83-5.49-4.76-11.5-6.64-17.42-4.71-14.84-9.12-29.78-13.73-44.66-8.2-26.51-21.4-50.01-41.46-69.5-5-4.86-9.51-10.31-13.61-15.96-3.52-4.84-2.93-10.39.06-15.45,5.46-9.22,13.75-14.95,24.03-17.16,9.88-2.12,19.95-3.43,29.99-4.72,10.03-1.29,20.14-2.04,30.2-3.14,15.29-1.66,27.52,3.6,36.53,16.09,6.44,8.92,11.1,18.65,14.08,29.31,7.54,27,15.44,53.89,23.12,80.85,3.84,13.48,7.69,26.96,11.16,40.54.93,3.65,1.18,7.8.49,11.49-2.01,10.82-8.28,18.13-19.13,21.34-12.12,3.58-24.6,3.81-35.94,4.51Z"/>
  <path class="cls-1" d="M236.93,745.42c1.5-4.23,2.29-8.15,4.18-11.44,3.1-5.37,6.52-10.66,10.49-15.41,28.04-33.57,59.01-64.3,91.45-93.57,1.59-1.43,4.02-1.98,6.11-2.79,1.55-.6,5.13,2.68,4.64,4.26-1.14,3.66-1.97,7.52-3.7,10.89-11.06,21.47-22.05,42.98-33.61,64.17-11.94,21.88-24.46,43.44-36.85,65.07-1.91,3.34-4.25,6.49-6.81,9.37-1.53,1.72-3.9,2.4-6.4,1.59-10.76-3.49-19.38-10.13-25.64-19.29-2.44-3.58-2.67-8.67-3.84-12.85Z"/>
</svg>