<?xml version="1.0" encoding="UTF-8"?>
<svg id="Layer_1" data-name="Layer 1" xmlns="http://www.w3.org/2000/svg" viewBox="0 0 1000 1000">
  <defs>
    <style>
      .cls-1 {
        fill: #000;
        stroke-width: 0px;
      }
    </style>
  </defs>
  <path class="cls-1" d="M534.01,193.27c19.54,0,39.08-.06,58.63.03,7.03.03,14.1.04,21.08.74,18.16,1.83,31.77,15.78,32.4,34.22.4,11.66-.32,23.45-1.76,35.04-1.73,13.94-5.14,27.61-9.15,41.12-3.11,10.47-5.89,21.06-8.31,31.71-8.5,37.41-7.17,74.42,5.21,110.88,2.51,7.39,5.12,14.76,7.31,22.25,18.93,64.49,10.63,125.14-25.84,181.75-3.38,5.25-6.86,10.47-10.68,15.41-21.48,27.85-42.93,55.72-64.69,83.35-20.48,26-46.64,43.9-78.99,51.49-22.11,5.19-44.56,8.35-67.26,2.48-9.91-2.57-19.49-5.79-27.85-11.81-8.77-6.32-13.92-14.78-13.34-25.89.28-5.43.61-11.02,2.1-16.2,4.75-16.53,10.71-32.66,18.47-48.04.92-1.83,3.6-4.08,5.23-3.91,1.72.18,3.71,2.77,4.64,4.75,2.63,5.66,4.66,11.59,7.14,17.32,4.4,10.18,10.56,19.21,18.98,26.45,13.16,11.32,28.48,16.04,45.69,13.3,27.98-4.46,51.65-17.64,71.35-37.59,29.55-29.92,43.53-66.37,41.81-108.29-1.28-31.22-4.32-62.37-6.02-93.58-2.8-51.5-5.7-103-3.73-154.64,1.49-39.07,3.83-78.04,9.59-116.75.69-4.62.9-9.33,1.01-14.01.26-11.13-3.73-14.7-13.93-12.31-7.59,1.78-15.1,3.94-22.63,6-24.09,6.58-48.17,13.2-72.27,19.74-1.47.4-3.18.61-4.61.25-1.38-.35-3.24-1.29-3.67-2.43-1.37-3.61-2.97-7.43-3.05-11.19-.24-10.92.07-21.86.47-32.78.19-5.1,3.78-8.28,9.31-8.5,8.59-.33,17.18-.46,25.77-.5,17.2-.07,34.39-.02,51.59-.02v.16Z"/>
</svg>