<?xml version="1.0" encoding="UTF-8"?>
<svg id="Layer_1" data-name="Layer 1" xmlns="http://www.w3.org/2000/svg" viewBox="0 0 1000 1000">
  <defs>
    <style>
      .cls-1 {
        fill: #000;
        stroke-width: 0px;
      }
    </style>
  </defs>
  <path class="cls-1" d="M399.12,187.47c7.25.26,17.41.45,27.56,1.02,14.04.79,28.07,1.84,42.1,2.82,5.46.38,10.91.88,16.37,1.3,22.6,1.75,45.24,3.02,67.78,5.34,25.96,2.67,47.73,14.13,64.82,33.97,14.59,16.95,20.45,36.57,17.18,58.79-.68,4.64-1.18,9.35-2.38,13.86-6.98,26.43-14.42,52.74-21.17,79.23-6.34,24.86-18.26,46.38-36.25,64.64-3.27,3.32-6.1,7.08-9.08,10.68-1.29,1.57-.5,4.89,1.45,5.94,6.87,3.7,13.81,7.27,20.67,10.99,7.55,4.1,15.31,7.89,22.5,12.56,18.26,11.85,31.45,27.62,37.93,48.92,5.34,17.56,2.49,34.11-4.5,50.2-3.4,7.82-7.85,15.34-12.78,22.32-38.89,54.94-80.67,107.57-126.09,157.27-18.34,20.06-40.25,34.44-66.56,41.89-31.73,8.98-63.24,9.1-94.43-2.24-11.81-4.29-22.79-10.26-32.61-18.2-6.74-5.45-12.62-11.64-16.72-19.4-4.29-8.13-5.3-16.73-1.03-24.76,7.34-13.77,14.34-27.88,24.76-39.7,18.09-20.53,36.43-40.84,54.74-61.18,1.54-1.71,3.39-3.52,5.46-4.25,2-.71,4.54-.39,6.73.04,1.9.37,3.38,4.04,2.62,5.82-3.38,7.9-6.79,15.78-10.24,23.65-4.39,10.01-9.13,19.89-13.13,30.05-2.55,6.5-4.52,13.34-5.88,20.19-3.78,19.09,5.8,35.76,24.24,42.9,2.9,1.12,5.86,2.45,8.89,2.84,25.27,3.22,49.96,1.59,73.28-9.77,9.95-4.85,18.2-12.07,26.1-19.7,26.5-25.6,50.49-53.38,71.83-83.42,6.33-8.92,12.56-17.94,18.36-27.2,5.41-8.63,9.39-17.88,11.42-28.05,3.12-15.59-.15-29.54-9.69-41.96-3.78-4.92-8.19-9.5-12.93-13.5-24.12-20.36-51.59-35.17-80.57-47.23-8.7-3.62-17.92-5.15-27.55-3.16-9.93,2.06-19.97,3.67-30.01,5.12-6.94,1-13.97,1.48-20.96,2.04-2.93.24-6.38-2.46-6.75-5.29-1.12-8.51-2.88-17.04-2.87-25.56,0-8.52,1.6-17.08,2.97-25.54.84-5.16,6.62-9.56,12.03-9.34,6.22.25,12.49.69,18.6,1.81,7.67,1.4,15.28,3.29,22.78,5.44,31.14,8.95,71.09-5.85,90.41-38.86,7.58-12.95,12.21-27.03,15.14-41.66,3.23-16.12,5.38-32.36,5.39-48.87,0-8.59.73-17.18,1.02-25.77.43-12.59-4.54-22.91-13.97-30.95-52.58-44.82-125.89-14.4-138.84,44.69-1.51,6.87-2.68,13.81-4.16,20.69-1.69,7.8-5.57,10.29-13.64,7.87-9.71-2.91-19.5-5.83-28.75-9.91-36-15.9-57.93-44.05-68.85-81.27-2.2-7.5-3.12-15.27-2.14-23.2,1.37-11.17,7.46-18.86,17.55-23,8.7-3.57,17.9-5.62,27.46-5.11,14.05.76,28.1,1.54,42.15,2.32,3.12.17,6.24.41,12.27.81Z"/>
  <path class="cls-1" d="M708.87,696.97c-.51,40.71-25.61,76.44-60.95,90.84-13.41,5.46-27.2,6.64-41.39,5.16-1.55-.16-3.11-.39-4.62-.74-14.64-3.39-22.68-13.22-23.35-28.26-.5-11.17,2.13-21.87,6.04-32.02,12.65-32.88,36.66-53.78,70.34-63.26,11.32-3.19,23.26-3.14,34.9-1.05,9.28,1.67,15.35,7.69,17.6,16.76,1.3,5.23,1.26,10.8,1.44,12.57Z"/>
  <path class="cls-1" d="M398.44,359.66c.42-1.56.38-2.54.85-3.03,7.75-7.96,17.62-9.49,27.82-7.73,11.66,2.01,22.45,6.32,28.63,17.54.41.74-.64,3.25-1.46,3.5-2.14.66-4.61,1.02-6.79.62-13.7-2.48-27.37-5.12-41.01-7.9-2.8-.57-5.42-2-8.04-3Z"/>
  <path class="cls-1" d="M420.89,582.58c-.18,2.02.23,3.92-.54,4.84-1.96,2.35-4.22,4.6-6.75,6.29-11.65,7.77-23.43,15.35-35.2,22.95-1.29.84-2.78,1.38-4.17,2.06-1.66.81-5.22-.17-6.28-1.78-1.13-1.72-.98-5.25.37-6.44,1.73-1.54,3.34-3.3,5.27-4.53,13.8-8.74,27.6-17.47,41.63-25.83,1.07-.64,3.85,1.61,5.67,2.44Z"/>
</svg>