<?xml version="1.0" encoding="UTF-8"?>
<svg id="Layer_1" data-name="Layer 1" xmlns="http://www.w3.org/2000/svg" viewBox="0 0 1000 1000">
  <defs>
    <style>
      .cls-1 {
        fill: #000;
        stroke-width: 0px;
      }
    </style>
  </defs>
  <path class="cls-1" d="M485.91,375.7c-12.74,6.16-26.87,7.48-40.36,10.97-19.65,5.08-39.46,9.55-59.28,13.97-7.02,1.56-13.32,4.4-19.24,8.28-4.02,2.64-6.86,6.32-8.72,10.77-.68,1.62,1.31,5.09,3.07,5.12,3.11.06,6.26.48,9.32.1,16.28-2.06,32.66-3.62,48.75-6.72,17.52-3.38,34.1-1.93,50.46,4.95,8.62,3.63,17.44,6.67,26.71,8.61,11.37,2.38,21.68.36,31.55-5.2,2.04-1.15,3.98-2.48,5.9-3.83,10.41-7.28,21.7-7.99,33.6-4.65,22.14,6.22,42.16,16.43,59.58,31.55,20.41,17.72,35.82,39.24,47.04,63.67,10.04,21.84,9.59,43.96-.47,65.77-5.6,12.13-12.92,23.19-21.57,33.39-17.2,20.27-34.27,40.66-51.51,60.9-24.84,29.17-49.71,58.33-74.73,87.35-6.12,7.09-12.47,14.08-19.41,20.35-38.92,35.17-99.35,38.78-142.91,6.88-5.62-4.11-10.92-8.98-15.32-14.36-10.77-13.16-12.68-28.18-7.23-44.14,3.31-9.68,8.18-18.66,14.19-26.87,21.26-29.01,42.72-57.87,64.22-86.7,1.32-1.77,3.53-3.13,5.61-4,1.05-.44,2.81.5,4.12,1.09.6.27,1.27,1.21,1.26,1.83-.04,2.31.06,4.74-.62,6.89-6.13,19.36-12.52,38.64-18.6,58.02-2.33,7.44-4.64,14.98-5.91,22.65-3.22,19.33,2.88,35.53,18.16,47.89,11.21,9.07,23.7,14.96,38.68,14.17,8.06-.42,15.4-2.64,21.88-7.35,3.79-2.74,7.46-5.72,10.84-8.95,20.37-19.43,41.02-38.59,60.81-58.59,12.07-12.2,23.13-25.46,33.97-38.8,10.87-13.38,19.56-28.22,26.84-43.91,5.33-11.47,8.74-23.41,10.4-35.87,2.86-21.44-3.09-40.2-17.72-56.15-7.48-8.15-16.28-14.65-26.06-19.72-26.74-13.88-55.25-21.33-85.29-23.11-17.39-1.03-34.45,1.58-50.99,6.27-30.08,8.54-59.06,20.29-87.94,32.22-3.56,1.47-6.95,3.64-10.01,6.01-6.69,5.2-9.68,12.52-8.58,20.69,2.19,16.3,10.38,29.31,23.95,38.67,6.13,4.23,13.14,5.34,20.14,2.57,7.98-3.15,15.84-6.66,23.51-10.49,13.28-6.63,26.33-13.71,39.56-20.43,2.73-1.39,5.8-2.11,8.74-3.07,1.72-.56,4.88,2.62,4.36,4.41-.64,2.19-.99,4.59-2.17,6.46-5.91,9.38-13.43,17.3-22.8,23.27-36.3,23.11-73.63,44.34-113.38,61.05-10.88,4.57-22.34,7.04-33.9,8.98-3.82.64-7.84.79-11.68.38-7.28-.78-13.85-3.69-17.62-10.22-12.11-20.96-18.72-42.85-11.06-67.23,4.22-13.44,6.4-27.36,8.14-41.35,1.85-14.85,1.62-29.59.03-44.44-1.74-16.37-5.21-32.39-8.38-48.49-.91-4.59-2-9.2-2.31-13.85-.95-14.39,6.09-25.63,19.38-31.77,9.32-4.3,19.24-6.59,29.27-8.05,35.56-5.18,71.17-9.99,106.76-15,16.25-2.29,32.43-5.08,48.71-7,12.82-1.52,24.86,1.34,35.12,9.64.9.73.73,2.78,1.11,4.5Z"/>
  <path class="cls-1" d="M637.08,801.08c-4.68-.31-9.39-.38-14.02-1.01-3.04-.42-6.09-1.36-8.93-2.56-11.08-4.66-17.73-12.88-17.94-25.11-.57-34.78,10.4-64.47,39.01-86.11,23.82-18.02,49.67-32.47,77.13-44.11,3.59-1.52,7.28-2.97,11.07-3.83,3.77-.86,7.71-1.24,11.58-1.3,6.99-.11,13.63,4.9,16.09,11.55,3.59,9.72,4.9,19.79,3.73,30.01-4.75,41.66-22.88,76.01-56.88,101.13-7.47,5.52-15.98,9.83-24.42,13.8-11.43,5.38-23.63,8.09-36.42,7.55Z"/>
  <path class="cls-1" d="M461.83,337.32c-4.79,3.93-9.5,3.44-13.98,2.02-9.06-2.85-17.1-7.62-23.89-14.33-17.48-17.27-26.06-38.72-28.33-62.73-1.18-12.47,3.97-22.98,13.75-30.84,4.24-3.4,8.93-6.3,13.65-9.04,44.67-25.96,92.88-36.16,144.12-30.85,18.6,1.93,36.86,6.24,54.74,12.22,18.73,6.26,25.99,19.19,25.41,37.29-.22,7.04-.35,14.05-3.17,20.71-1.13,2.67-5.39,4.18-7.79,2.37-5.59-4.23-11.02-8.7-16.75-12.72-14.19-9.97-29.51-17-46.77-20.55-19.14-3.94-37.19-1.43-55.24,4.68-9.69,3.28-18.62,8.02-27.29,13.35-15.81,9.72-24.13,24.1-25.75,42.34-.83,9.33-.78,18.74-1.3,28.1-.34,6.2-.98,12.38-1.43,17.96Z"/>
</svg>