<?xml version="1.0" encoding="UTF-8"?>
<svg id="Layer_1" data-name="Layer 1" xmlns="http://www.w3.org/2000/svg" viewBox="0 0 1000 1000">
  <defs>
    <style>
      .cls-1 {
        fill: #000;
        stroke-width: 0px;
      }
    </style>
  </defs>
  <path class="cls-1" d="M426.64,745.02c.12-17.29,3.98-34.11,6.96-51.02,7.57-43.08,15.57-86.09,23.39-129.13.28-1.53.43-3.08.62-4.63.39-3.19-3.26-6.5-5.95-5.21-7.73,3.71-15.45,7.47-23.05,11.43-10.41,5.43-21.06,10.15-32.35,13.56-21.03,6.37-38.88-.68-50.75-18.75-2.98-4.54-5.67-9.41-7.61-14.47-12.01-31.37-23.77-62.83-35.59-94.27-4.52-12.02-5.05-24.34-2.93-36.94,1.4-8.3,5.95-14.28,12.65-18.87,1.92-1.32,4.06-2.34,6.15-3.41,27.89-14.18,56.89-25.68,86.26-36.39,9.8-3.57,18.39-1.77,26.97,2.64,2.89,1.48,4.28,4.41,4.47,7.73.45,8.04-1.76,15.49-5.35,22.55-3.19,6.27-6.71,12.36-9.9,18.62-6.13,12.05-9.27,24.74-8.92,38.39.33,12.9,4.25,24.59,10.77,35.46,9.37,15.61,27.54,24.34,46.32,19.13,5.98-1.66,12.17-2.58,18.28-3.75,2.04-.39,4.51,2.09,4.37,4.4-.28,4.66-.28,9.38-1.11,13.95-6.51,35.62-8.52,71.36-3.35,107.32,4.27,29.68,13.62,57.7,27.99,84.01,1.06,1.94,2.86,3.67,4.71,4.9.91.6,3.43.36,4.02-.42,2.33-3.06,4.58-6.32,6.17-9.81,14.87-32.71,29.85-65.38,44.31-98.27,13.9-31.61,23.61-64.45,28.15-98.83,1.85-14.02,3.29-28.02,2.57-42.06-1.55-30.32,5.3-59.02,15.94-86.97,5.27-13.85,11.21-27.52,17.9-40.75,12.34-24.4,25.42-48.42,38.29-72.55,1.08-2.02,2.62-3.94,4.36-5.41.95-.8,3.22-1.27,4.14-.7,8.13,5.1,14.02,12.26,18.05,20.93,2.49,5.37,2.01,10.97-.99,15.76-3.29,5.26-7.29,10.15-11.48,14.76-9.99,10.99-20.49,21.52-30.38,32.6-7.27,8.15-14.4,16.52-20.72,25.42-16.48,23.21-17.58,47.8-4.81,73.01,3.52,6.95,8.05,13.38,11.92,20.16,3.48,6.09,7.13,12.15,9.92,18.56,8.35,19.2,10.96,39.02,4.89,59.45-1.78,5.98-3.39,12.06-5.78,17.8-17.44,41.88-36.71,82.86-60.04,121.83-11.25,18.8-23.33,37.03-36.69,54.4-13.87,18.03-29.07,34.85-47,48.93-8.57,6.74-17.64,12.98-27.02,18.52-14.17,8.37-29.15,6.34-40.87-4.82-10.59-10.08-16.87-22.38-17.87-37.11-.26-3.89-.04-7.81-.04-11.72Z"/>
  <path class="cls-1" d="M392.75,326.08c-29.01.02-52.99-9.46-72.49-29.81-12.24-12.77-19.74-28.08-24.05-44.97-1.33-5.21-1.21-10.84-1.37-16.29-.22-7.3,2.53-13.77,6.59-19.67,4.94-7.18,11.45-12.75,18.49-17.76,3.31-2.36,7.92-1.65,10.25,1.76,1.77,2.58,3.45,5.22,5.08,7.88,19.97,32.69,39.94,65.37,59.84,98.09,2.43,3.99,4.55,8.17,6.68,12.33,1.79,3.5-1.2,7.88-5.4,8.15-1.56.1-3.11.26-3.61.3Z"/>
</svg>