<?xml version="1.0" encoding="UTF-8"?>
<svg id="Layer_1" data-name="Layer 1" xmlns="http://www.w3.org/2000/svg" viewBox="0 0 1000 1000">
  <defs>
    <style>
      .cls-1 {
        fill: #000;
        stroke-width: 0px;
      }
    </style>
  </defs>
  <path class="cls-1" d="M463.08,522.41c-5.02-1.19-9.35,1.27-13.52,2.94-36.27,14.53-72.02,30.27-107.15,47.38-2.09,1.02-3.96,2.51-5.92,3.79-1.73,1.12-1.98,4.98-.43,6.13,9.3,6.89,19.7,9.65,30.9,6.6,8.25-2.25,16.23-5.57,24.19-8.78,13.03-5.26,25.92-10.88,38.94-16.16,2.07-.84,4.55-.7,6.85-.96,1.94-.21,4.6,2.49,4.47,4.44-.1,1.55.21,3.21-.25,4.63-6.09,18.77-17.77,32.81-35.64,41.43-4.92,2.37-9.97,4.5-15.03,6.56-26.05,10.58-52.24,20.82-78.15,31.74-14.61,6.16-29.96,8.76-45.35,11.3-10.31,1.7-20.42-.86-29.75-4.85-12.35-5.28-19.59-15.13-21.07-28.8-1.2-11.06.32-21.8,3.31-32.45,4.44-15.79,8.81-31.61,13.01-47.47,1.8-6.79,2.96-13.74,4.62-20.56,5.01-20.5,1.93-40.37-4.48-59.98-2.43-7.43-5.07-14.78-7.7-22.14-3.47-9.73-4.4-19.8-4.18-30.03.3-14.29,6.7-25.41,17.76-34.13,7.51-5.92,16.14-9.69,25.26-11.93,9.09-2.23,18.43-3.45,27.68-4.99,21.57-3.6,43.22-6.77,64.71-10.8,14.62-2.74,28.59-7.99,42.13-14.14,5.82-2.64,11.73-4.28,18.06-4.47,7.93-.23,15.44,1.16,22.64,4.89,9.07,4.7,17.72,9.93,25.1,17.02.86.82,1.17,3,.72,4.15-.41,1.06-2.18,2.17-3.39,2.23-3.9.17-7.82-.04-11.72-.29-27.3-1.72-52.73,4.8-76.7,17.52-11.04,5.86-22.05,11.78-32.82,18.12-18.26,10.75-25.79,26.59-21.24,47.6,2.31,10.68,4.73,21.34,7.34,31.95,1.16,4.71,5.36,7.52,10.62,7.39,5.46-.13,10.93-.42,16.37-.93,12.45-1.17,24.89-2.44,37.32-3.81,21.75-2.4,43.49-4.95,65.24-7.35,6.22-.69,12.48-.94,18.69-1.65,8.54-.98,17.1-1.89,25.56-3.38,33.53-5.92,53.5-27.23,64.1-58.21,3.52-10.3,5.03-21.28,5.21-32.33.44-25.81.9-51.61,1.6-77.41.55-19.98-8.26-34.5-25.17-44.45-16.51-9.71-34.28-15.04-53.55-14.75-17.27.27-32.03,6.54-43.89,19.1-4.28,4.53-8.06,9.55-11.84,14.53-6.15,8.1-11.94,16.47-18.21,24.47-3.84,4.91-7.89,9.8-12.54,13.9-14.1,12.45-29.62,13.39-45.44,4.43-8.29-4.69-15.2-11.04-21.2-18.31-18.57-22.47-32.96-47.46-44.37-74.23-3.15-7.38-3.82-15.13-3.19-23.01,1.03-12.96,7.79-21.96,19.84-26.52,5.03-1.9,10.53-3.01,15.9-3.45,6.2-.51,12.54-.35,18.74.33,17.86,1.96,35.68,4.32,53.52,6.53,14.73,1.83,29.47,3.61,44.2,5.51,27.12,3.51,54.26,6.84,81.33,10.73,14.67,2.11,29.26,4.93,43.78,7.97,6.84,1.43,13.59,3.69,20.06,6.36,26.15,10.81,40.49,31.09,44.97,58.48,2.42,14.75,1.76,29.59-1.32,44.32-3.04,14.52-5.65,29.13-8.57,43.68-4.96,24.69-5.45,49.72-5.34,74.75.04,10.23-.8,20.26-2.24,30.35-3.3,23.01-14.76,40.84-33.64,54.11-6.38,4.48-12.99,8.68-19.1,13.52-5.82,4.61-6.32,12.92-1.45,18.9,3.44,4.23,7.23,8.21,11,12.16,17.27,18.12,34.63,36.15,51.86,54.3,5.67,5.97,5.5,9.44.29,16.32-10.7,14.15-24.35,23.77-41.31,29.38-15.26,5.05-29.29,2.71-43.01-4.34-15.09-7.76-26.21-19.5-33.88-34.6-10.28-20.23-19.57-40.88-27.28-62.23-3.45-9.55-6.79-19.15-10.38-28.65-1.37-3.63-3.07-7.2-6.48-9.42Z"/>
  <path class="cls-1" d="M743.55,826.3c-33.41.76-63.1-10.04-89.9-29.19-22.48-16.06-36.9-37.67-43.4-64.78-3.26-13.62-1.71-26.56,3.21-39.07,6.43-16.32,17.08-29.75,31.19-40.31,2.23-1.67,6.72-1.48,8.69.56,3.79,3.95,7.62,7.88,11.16,12.04,38.08,44.65,75.16,90.13,111.38,136.3,2.41,3.08,4.67,6.28,6.87,9.51,3.07,4.51,1.25,8.91-4.45,10.57-3.73,1.09-7.52,2.27-11.35,2.67-7.77.83-15.6,1.16-23.4,1.69Z"/>
  <path class="cls-1" d="M331.14,797.08c-12.01.15-22.98-3.47-33.2-9.46-7.43-4.35-10.9-11.15-9.73-19.62.73-5.32,2.15-10.73,4.3-15.64,14.26-32.46,33.64-61.29,60.96-84.32,8.35-7.04,17.21-13.34,27.58-17.12,1.29-.47,2.89-.22,4.33-.08,1.55.14,1.96,3.43.65,6.37-2.2,4.96-4.35,9.96-6.85,14.78-5.02,9.66-10.37,19.14-15.37,28.81-3.57,6.9-7.06,13.87-10.08,21.02-7.32,17.34-11.94,35.32-11.91,54.3,0,4.66-.12,9.32-.38,13.97-.21,3.9-3.72,6.78-7.97,6.85-.78.01-1.55.1-2.33.15Z"/>
</svg>