<?xml version="1.0" encoding="UTF-8"?>
<svg id="Layer_1" data-name="Layer 1" xmlns="http://www.w3.org/2000/svg" viewBox="0 0 1000 1000">
  <defs>
    <style>
      .cls-1 {
        fill: #000;
        stroke-width: 0px;
      }
    </style>
  </defs>
  <path class="cls-1" d="M358.56,183.64c34.35,2.78,68.63,5.56,102.91,8.33,5.46.44,10.92.84,16.37,1.27,21.82,1.74,43.65,3.3,65.44,5.3,15.76,1.45,30.59,6.36,44.32,14.18,23.54,13.4,36.32,33.76,37.98,60.82,1.01,16.44.06,32.63-4.32,48.79-10.28,37.98-13.69,76.85-13.18,116.12.12,9.37-.06,18.77-.64,28.13-2.38,38.53-18.29,70.65-46.52,96.79-3.44,3.18-7.1,6.14-10.64,9.21-58.55,50.65-117.11,101.28-175.64,151.96-3.53,3.06-6.85,6.38-10.19,9.66-2.22,2.18-1.9,6.52.37,8.28,13.29,10.34,28.64,16,44.99,18.64,14.99,2.42,29.53.16,43.28-6.81,13.29-6.74,26.02-14.28,37.73-23.53,22.09-17.44,44.17-34.9,66.35-52.24,6.15-4.81,12.5-9.38,19-13.71,1.78-1.19,4.39-1.19,6.65-1.55.65-.1,1.42.42,2.1.72,1.65.74,2.3,2.19,1.28,3.84-2.04,3.29-3.99,6.73-6.59,9.55-25.43,27.6-50.68,55.39-76.67,82.45-9.69,10.09-20.82,18.96-32.03,27.41-23.07,17.39-49.54,26.15-78.19,28.63-15.02,1.3-29.75-1.49-44.15-4.76-13.64-3.1-26.82-8.33-40.1-12.92-7.48-2.59-14.03-6.89-19.27-12.92-5.59-6.43-7.18-13.9-4.33-21.88,3.46-9.65,9.13-18.1,15.48-26.11,17-21.45,33.97-42.92,50.97-64.37,10.19-12.87,20.44-25.7,30.57-38.63,2.4-3.06,4.43-6.41,6.58-9.66,1.48-2.24-.65-6.56-3.61-7.19-2.29-.48-4.64-.63-6.93-1.1-3.5-.71-8.36.73-9.26-4.61-.72-4.28,2.2-7.5,4.95-10.14,7.9-7.57,16.07-14.86,24.23-22.15,20.43-18.24,41.53-35.58,64.11-51.18,50.64-35.01,81.38-83.38,94.28-143.29,5.44-25.27,8.79-50.81,8.81-76.74,0-10.29-1.53-20.28-4.65-30-5.29-16.51-15.69-28.78-31.86-35.38-21.61-8.82-43.92-10.24-66.62-4.73-19.72,4.79-33.15,17.18-40.78,35.55-3.88,9.33-6.25,19.3-9.05,29.05-1.5,5.25-2.39,10.67-3.69,15.98-1.08,4.42-5.53,8.24-9.95,8.77-1.55.19-3.12.57-4.65.44-25.23-2.16-47.02-11.32-62.84-31.87-12.44-16.16-22.38-33.96-31.57-52.07-6.21-12.23-7.75-25.33-1.83-38.54,5.56-12.4,14.74-20.42,28.31-21.6,10.84-.94,21.84-.19,32.72-.19Z"/>
  <path class="cls-1" d="M682.01,816.62c-24.23-.33-48.22-3.02-71.84-8.51-5.28-1.23-10.53-2.85-15.52-4.94-20.29-8.52-25.91-29.72-22.93-44.15,1.26-6.09,2.59-12.29,4.89-18.03,8.72-21.77,19.84-42.31,33.19-61.6,1.35-1.95,3.79-2.49,6.27-1.8,2.73.76,4.95,4.63,4.1,7.36-.69,2.22-1.38,4.45-2.27,6.6-2.66,6.49-5.64,12.86-8.07,19.44-2.15,5.83-4.14,11.78-5.47,17.84-2.87,13.01,2.68,25.32,14.24,31.79,4.04,2.26,8.41,4.37,12.89,5.34,9.89,2.14,19.92,3.64,29.93,5.16,10.79,1.63,21.62,2.99,32.44,4.43,7.23.96,13.24,4.32,18.51,9.21,3.56,3.3,5.25,8.57,3.41,12.7-2.21,4.96-4.61,9.87-7.38,14.53-1.59,2.67-4.27,4.59-7.68,4.62-6.24.07-12.48.02-18.71.02Z"/>
  <path class="cls-1" d="M450.8,370.23c-20.21.01-38.59-5.66-56.94-9.81-.73-2.99-.84-5.35,1.57-6.54,3.43-1.68,6.94-3.78,10.62-4.31,16.24-2.31,30.59,2.1,42.38,13.69,1.38,1.36,1.44,4.08,2.37,6.96Z"/>
</svg>