<?xml version="1.0" encoding="UTF-8"?>
<svg id="Layer_1" data-name="Layer 1" xmlns="http://www.w3.org/2000/svg" viewBox="0 0 1000 1000">
  <defs>
    <style>
      .cls-1 {
        fill: #000;
        stroke-width: 0px;
      }
    </style>
  </defs>
  <path class="cls-1" d="M421.63,817.7c-30.15-.46-58.97-7.27-87.13-17.13-5.77-2.02-11.24-5.49-16.19-9.19-8.85-6.62-12.13-15.97-10.93-26.89.6-5.48,1.66-10.89,4.99-15.45,4.59-6.29,8.77-13.07,14.22-18.54,24.84-24.93,50.01-49.52,75.22-74.07,2.1-2.04,5.27-3.16,8.13-4.13,1.08-.37,3.06.56,4.01,1.52.96.97,1.7,2.77,1.55,4.1-.25,2.25-.92,4.61-2.03,6.59-7.99,14.33-16.13,28.57-24.23,42.84-1.93,3.39-4.15,6.64-5.79,10.17-3.23,6.97-1.3,16.04,4.11,21.72,6,6.3,12.87,11.47,20.75,15.08,26.97,12.36,54.16,13.75,81.66,1.46,15.18-6.78,28.66-15.96,40.3-27.78,24.14-24.52,48.37-48.96,72.12-73.84,14.03-14.7,27.27-30.16,40.81-45.33,4.16-4.67,8.07-9.56,12.22-14.24,20.44-23.11,24.7-49.85,17.23-78.93-2.91-11.33-6.51-22.53-10.55-33.51-11.07-30.06-22.35-60.04-33.93-89.91-7.39-19.06-12.88-38.46-14.81-58.9-.73-7.73-2.6-15.42-4.57-22.96-4.59-17.53-14.88-30.92-31.01-39.29-21.99-11.41-45.43-16.66-70.22-14.38-14.74,1.35-26.78,8.52-35.98,19.83-5.38,6.62-9.63,14.19-14.14,21.49-4.11,6.63-7.62,13.65-11.89,20.17-4.07,6.22-10.05,9.47-17.73,9.7-17.34.53-34.49-1.12-50.99-6.28-41.37-12.96-69.27-54.36-63.35-97.95,1.18-8.67,4.35-16.65,9.35-23.78,7.12-10.15,17.05-16.2,29.37-17.15,8.52-.66,17.27-.65,25.73.49,23.99,3.24,47.9,7.16,71.82,10.91,24.69,3.87,49.33,8.15,74.06,11.73,34.97,5.06,68.85,13.98,101.45,27.59,7.16,2.99,14.43,6.27,20.7,10.74,20.31,14.48,28.07,34.88,25.53,59.29-1.39,13.33-5.99,25.79-11.68,37.91-3.64,7.75-7.13,15.64-9.87,23.74-7.41,21.92-4.88,43.31,5.49,63.62,4.59,9,10.49,17.38,16.3,25.69,8.06,11.53,16.82,22.58,24.82,34.15,4.87,7.05,9.58,14.37,13.15,22.13,9.39,20.45,8.76,40.91-1.72,60.95-6.19,11.84-14,22.59-22.49,32.84-7.98,9.64-16.23,19.04-24.5,28.43-38.23,43.44-76.75,86.63-114.68,130.34-22.89,26.37-50.81,43.82-85.06,50.32-12.99,2.47-26.39,2.79-39.6,4.09Z"/>
  <path class="cls-1" d="M312.64,519.08c0,23.47.09,46.93-.04,70.4-.06,10.33,1.6,20.28,5.63,29.74,3.05,7.17,8.99,11.02,16.58,11.04,9.39.03,18.64-1.51,27.49-5.08,14.49-5.83,29.12-11.31,43.6-17.17,12.3-4.98,24.42-10.43,36.72-15.41,4.3-1.74,8.85-3.13,13.41-3.79,1.67-.24,4.03,1.8,5.45,3.36.66.72.28,3.06-.41,4.2-1.19,1.97-2.83,3.74-4.55,5.31-16.82,15.39-35.14,28.67-55.75,38.56-28.18,13.52-56.51,26.73-84.68,40.27-9.22,4.43-18.69,7.83-28.68,10.04-20.16,4.45-36.98-1.72-51.3-15.82-6.2-6.1-10.55-13.54-14.17-21.41-10.32-22.44-15.12-45.98-13.66-70.65.46-7.79,1-15.71,2.81-23.26,3.33-13.87,3.66-27.87,3.6-41.96-.04-10.17-.02-20.34-.24-30.51-.49-22.77,2.15-45.29,5.29-67.76.97-6.94,2.72-13.82,4.74-20.54,4.85-16.11,15.67-26.85,31.37-32.39,8.08-2.85,16.39-5.27,25.16-5.16,3.13.04,6.26-.19,9.38-.21,40-.21,79.57-4.86,118.89-11.74,10.89-1.9,21.76-2.75,32.69-1.98,20.04,1.41,38.01,8.32,53.17,21.78.94.83.93,2.73,1.36,4.13-1.47.37-2.97,1.14-4.4,1.02-2.3-.2-4.59-.87-6.82-1.56-22.35-6.92-44.73-6.73-66.86.56-17.05,5.62-33.86,11.97-50.73,18.14-9.53,3.48-18.82,7.71-28.47,10.79-16.18,5.15-23.8,17.07-26.47,32.67-1.31,7.65-1.24,15.58-1.3,23.38-.16,20.34-.06,40.67-.06,61.01.42,0,.83,0,1.25,0Z"/>
  <path class="cls-1" d="M622.99,753.97c-.07-16.6,5.89-30.43,18.94-40.94,10.94-8.81,21.7-17.86,32.95-26.24,18.14-13.51,36.62-26.57,54.96-39.82,14.09-10.17,29.54-17.3,46.56-20.97,2.29-.49,6.9,1.59,8.06,3.63,8.17,14.38,9.68,29.68,4.47,45.13-3.47,10.29-7.87,20.45-13.27,29.85-15.8,27.56-37.41,49.78-64.34,66.73-13.29,8.36-27.84,13.67-42.72,18.62-19.72,6.56-47-9.33-45.61-35.99Z"/>
  <path class="cls-1" d="M748.37,419.91c.28,9.59-4.47,14.65-9.87,14.06-14.81-1.62-28.39-6.74-40.77-15.01-2.84-1.89-3.86-7.38-2.1-10.54.75-1.34,1.2-3,2.27-4,8.46-7.86,16.98-15.67,25.61-23.34,2.59-2.3,8.08-1.16,10.34,1.9,8.9,12.13,13.3,25.89,14.52,36.91Z"/>
</svg>