<?xml version="1.0" encoding="UTF-8"?>
<svg id="Layer_1" data-name="Layer 1" xmlns="http://www.w3.org/2000/svg" viewBox="0 0 1000 1000">
  <defs>
    <style>
      .cls-1 {
        fill: #000;
        stroke-width: 0px;
      }
    </style>
  </defs>
  <path class="cls-1" d="M609.53,467.35c6.47,5.14,11.28,9.04,16.16,12.83,8.64,6.71,17.67,12.98,25.93,20.13,12.07,10.45,20.68,23.2,24.24,39.17,3.38,15.15,1.29,29.45-4.97,43.43-4.54,10.12-11.22,18.74-18.21,27.19-29.9,36.15-59.77,72.34-89.69,108.48-11.97,14.46-23.88,28.96-36.11,43.2-17.27,20.1-38.78,33.86-64.3,40.99-28.74,8.03-57.23,6.63-85.19-3.68-9.58-3.53-18.38-8.65-26.04-15.53-7.12-6.39-12.38-13.95-15.49-23.09-2.61-7.66-3.23-15.38-1.01-23.05,1.73-5.97,3.99-11.87,6.8-17.41,3.52-6.95,7.46-13.76,11.88-20.19,18.61-27.06,37.42-53.97,56.27-80.86,2.21-3.15,4.81-6.22,7.83-8.53,1.44-1.1,4.48-.83,6.51-.23,2.28.67,3.89,2.98,3.41,5.44-.89,4.57-2.03,9.13-3.58,13.51-6.52,18.41-13.36,36.71-19.81,55.14-2.58,7.35-5.18,14.82-6.55,22.45-4.86,27.15,9.42,49.32,35.92,57.68,15.14,4.78,29.34,3.32,42.92-4.43,5.39-3.08,10.73-6.51,15.37-10.61,32.28-28.46,63.8-57.72,92.49-89.86,8.32-9.32,16.17-19.1,23.82-28.98,5.75-7.43,10.31-15.62,13.47-24.58,3.33-9.43,2.56-18.37-1.99-27.19-3.28-6.36-7.72-11.81-13.11-16.38-5.96-5.05-12.08-9.95-18.47-14.44-25.6-17.96-51.33-35.73-77.02-53.56-1.93-1.34-3.95-2.52-5.9-3.84-18.79-12.68-37.82-13.24-57.09-1.14-3.97,2.49-8.04,4.86-11.84,7.59-12.7,9.12-25.37,18.28-37.92,27.61-11.41,8.48-17.05,20.04-17.52,34.2-.08,2.55,2.67,6.82,4.86,7.3,13.35,2.91,26.39,2.59,38.84-3.72,7.66-3.89,15.22-7.99,22.96-11.71,1.97-.95,4.45-.91,6.71-1.14,1.6-.16,4.59,3.75,4.06,5.07-.29.71-.34,1.55-.73,2.18-7.98,12.74-17.69,24.01-30.53,31.91-34.63,21.3-69.89,41.46-107.14,57.94-13.03,5.76-26.39,9.7-40.84,8.63-2.34-.17-4.7-.2-7.01-.54-14.48-2.09-22.5-9.26-26.06-23.24-4.11-16.15-1.72-31.17,8.66-44.35,18.87-23.95,37.6-48.02,57.18-71.38,13.54-16.15,28.43-31.18,42.71-46.72,2.08-2.26,1.99-6.17-.38-8.34-4.6-4.22-9.26-8.38-14.02-12.41-9.55-8.08-19.35-15.87-28.74-24.13-7.06-6.21-13.33-13.16-17.38-21.89-2.71-5.85-1.4-13.03,3.73-16.84,2.49-1.86,5.08-3.82,7.94-4.91,5.82-2.22,11.74-4.5,17.82-5.69,39.09-7.64,78.22-15.08,117.36-22.4,12.59-2.35,24.98-1.6,36.33,5.03,1.56.91,2.51,3.61,2.8,5.61.14.95-1.75,2.57-3.05,3.27-2,1.09-4.23,1.97-6.46,2.4-9.98,1.89-20.04,3.35-29.97,5.47-4.51.96-8.85,2.92-13.12,4.77-3.35,1.45-3.85,7.61-1.06,10.03,1.17,1.02,2.15,2.32,3.45,3.12,24.65,15.12,49.29,30.25,75.29,43,4.9,2.4,10.01,4.4,15,6.61,13.28,5.88,25.98,4.1,38.02-3.29,11.71-7.18,20.29-17.18,24.7-30.27,2.74-8.12,5.25-16.39,6.96-24.78,6.39-31.39,12.63-62.81,18.47-94.31,3.78-20.39-3.18-37.28-19.76-49.37-23.55-17.17-50.03-25.26-79.37-22.43-9.33.9-18.46,2.4-27.49,5.48-33.92,11.59-47.86,42.25-44.81,71.43.73,6.98,1.92,13.91,2.75,20.89.37,3.1-2.42,6.32-5.36,6.45-3.11.14-6.32.74-9.32.21-37.88-6.69-64.1-27.43-76.15-64.49-3.43-10.54-3.37-21.63-1.42-32.53,2.42-13.52,14.74-25.71,28.23-28.22,3.06-.57,6.21-.78,9.33-.92,53.13-2.37,106.26-4.61,159.46-2.91,14.06.45,28.09,1.93,42.15,2.38,28.78.92,61.38,26.02,70.3,60.07,4.78,18.25,2.86,35.57-3.45,52.87-5.89,16.14-11.71,32.31-17.49,48.5-2.1,5.88-4.22,11.78-5.92,17.78-3.64,12.86-6.32,25.79-2.98,39.28,2.99,12.06.13,23.13-6.34,33.58-3.67,5.93-6.68,12.26-10.96,20.21Z"/>
  <path class="cls-1" d="M756.04,676.85c-.2,16.5-1.58,32.77-6.83,48.52-11.35,34.07-33.13,58.04-68.12,68.2-20.7,6.01-41.69,5.45-61.99-2.37-4.96-1.91-9.69-5.1-13.71-8.63-6.03-5.29-9.13-12.37-10.04-20.51-1.98-17.78,1.76-34.09,11.62-49.01,14.83-22.42,33.16-41.38,56-55.69,16.61-10.41,34.18-18.76,53.64-22.38,4.57-.85,9.29-1.38,13.93-1.26,3.81.1,7.71,1.03,11.37,2.2,7.35,2.35,11.88,7.65,12.69,15.26.91,8.51.99,17.1,1.44,25.66Z"/>
</svg>