<?xml version="1.0" encoding="UTF-8"?>
<svg id="Layer_1" data-name="Layer 1" xmlns="http://www.w3.org/2000/svg" viewBox="0 0 1000 1000">
  <defs>
    <style>
      .cls-1 {
        fill: #000;
        stroke-width: 0px;
      }
    </style>
  </defs>
  <path class="cls-1" d="M522.58,230.39c19.58-2.96,39.04-3.59,58.57-1.75,33.06,3.11,57.58,27.56,61.13,60.87,1.84,17.23.95,34.41-1.91,51.45-2.35,14-2.96,28.07-1.62,42.1,1.93,20.24,4.81,40.36,11.51,59.74,3.58,10.34,6.64,20.86,10.19,31.2,13.95,40.66,27.97,81.29,42.07,121.9,1.52,4.38,3.69,8.54,5.61,12.77.82,1.8,4.31,1.82,6.11.4,9.06-7.15,13.61-17.23,16.4-27.8,3.38-12.82,5.7-25.87,2.98-39.42-1.83-9.09-2.22-18.49-2.96-27.77-.06-.72,2.48-2.58,3.27-2.31,12.59,4.27,21,13.06,25.66,25.31,3.11,8.16,3.72,16.51,2,25.33-4.76,24.35-14.65,46.11-30.97,64.83-4.62,5.3-9.44,10.46-14.51,15.33-14.66,14.1-29.45,28.07-44.32,41.95-2.82,2.63-6.13,4.81-9.47,6.77-.89.52-3.6-.14-3.95-.94-2.22-4.97-4.43-10.02-5.88-15.26-7.92-28.62-15.63-57.3-23.4-85.96-15.94-58.84-31.84-117.69-47.83-176.51-1.23-4.51-2.81-8.96-4.59-13.28-.44-1.08-2.3-1.58-4.23-2.8-1.23,10.37-2.55,20.38-3.6,30.42-3.44,32.92-12.4,64.38-24.57,95.05-11.53,29.06-23.26,58.05-34.17,87.34-22.1,59.33-43.7,118.84-65.55,178.26-2.7,7.33-5.41,14.68-8.56,21.82-1.87,4.25-4.2,8.44-7.08,12.06-4.14,5.22-9.97,7.83-16.65,6.33-16.04-3.6-31.66-8.6-46.66-15.39-7.47-3.38-10.09-8.87-8.73-17.17,1.83-11.11,6.79-20.62,14.05-29.19,16.69-19.7,33.07-39.65,49.74-59.37,13.64-16.13,27.56-32.02,41.25-48.1,3.54-4.16,6.8-8.57,9.87-13.08.54-.79-.34-2.72-.88-3.99-.21-.49-1.42-1.02-1.94-.84-4.4,1.5-8.9,2.81-13.07,4.83-30.95,14.97-61.84,30.08-92.73,45.18-12.67,6.2-25.66,11.67-39.38,14.96-22.18,5.32-42.41-2.58-55.49-21.19-1.8-2.56-3.43-5.24-5-7.94-11.42-19.6-22.2-39.54-31.46-60.28-7.66-17.17-13.8-34.86-18.79-52.99-7.15-25.98-8.85-52.41-6.38-79.08,1.52-16.4,6.1-32.18,11.32-47.81,7.92-23.72,15.33-47.61,22.86-71.45,1.64-5.21,2.81-10.57,4.3-15.83,4.84-17.04.96-32.82-8.52-46.92-6.5-9.66-14.48-18.47-22.6-26.88-22.28-23.07-45-45.73-67.51-68.57-4.39-4.46-8.74-8.96-12.93-13.61-6.34-7.03-11.33-14.94-14.89-23.73-1.09-2.7.23-6.58,2.83-8.1.66-.39,1.22-.99,1.9-1.33,49.44-24.44,99.79-1.75,120.89,34.39,12.38,21.2,20.46,43.83,26.3,67.45,1.87,7.59,3.12,15.37,5.57,22.76,10.32,31.18,29.26,54.97,60.12,68.07,12.34,5.24,25.18,8.09,38.68,8.53,14.06.46,28.09,1.69,42.12,2.75,3.08.23,6.17,1,9.12,1.96,1.22.4,2.27,1.84,3.01,3.04,1.03,1.67.03,5.27-1.42,6.4-.61.47-.99,1.29-1.65,1.64-21.84,11.84-44.7,18.62-69.84,14.04-10.89-1.99-21.64-2.13-32.55.72-11.11,2.9-20.19,8.52-26.8,17.69-3.62,5.02-6.67,10.61-9.04,16.33-4.41,10.63-4.1,21.54,1.21,31.78,3.21,6.18,7.34,11.95,11.5,17.57,3.72,5.01,8.23,9.43,12.09,14.35,13.93,17.79,21.03,38.24,22.68,60.6.4,5.4-.11,10.96-.89,16.34-1.34,9.28-3.17,18.5-4.9,27.73-2.51,13.38-1.11,26.49,2.59,39.44.64,2.24,1.59,4.41,2.59,6.52,6.04,12.67,16.95,18.4,30.63,16.05,2.3-.39,4.6-.97,6.79-1.76,20.61-7.44,40.77-15.89,59.82-26.78,2.92-1.67,2.94-5.95.04-7.59-3.38-1.91-6.93-3.54-10.22-5.59-5.62-3.49-8.9-8.7-9.87-15.22-.57-3.85-1.17-7.78-1.05-11.65.88-29.79,3.85-59.34,11.99-88.11,2.33-8.23,5.44-16.35,9.13-24.08,12.83-26.87,33.84-44.55,62.21-53.31,7.43-2.3,15.15-3.8,22.84-5.05,7.79-1.26,15.18-3.51,22.33-6.71,2.65-1.18,4.27-5.52,2.85-7.93-3.97-6.73-7.99-13.43-12.06-20.11-12.04-19.77-18.58-41.31-20.04-64.32-1.7-26.73.69-53.13,7.9-78.99.8-2.88,2.81-5.42,4.48-8.55Z"/>
  <path class="cls-1" d="M881.69,660.2c-.28,2.26-.64,8.53-1.87,14.64-8.79,43.71-20.28,86.75-32.55,129.59-1.92,6.71-4.67,13.31-7.93,19.49-7.41,14-19.16,22.32-34.92,24.82-8.53,1.35-17,2.09-25.67.92-18.59-2.51-37.23-4.64-55.86-6.84-16.78-1.98-28.97-10.29-37.08-25.28-17.66-32.63-18.06-65.8-3.51-99.37,5.67-13.09,14.66-24.02,25.81-32.97,5.48-4.4,11.15-8.62,17.01-12.5,25.45-16.81,51.03-33.41,76.49-50.19,14.08-9.28,29.34-14.34,46.33-14.26,12.29.06,20.7,6.01,26.42,16.36,5.35,9.68,7.38,18.84,7.33,35.6Z"/>
  <path class="cls-1" d="M699.28,400.23c-1.63-4.89-3.42-9.23-4.45-13.75-.7-3.06.01-6.38,2.97-8.31,17.03-11.1,34.44-21.54,53.19-29.52,3.56-1.52,7.52-2.08,11.25-3.23,13.19-4.08,24.75-.24,35.16,7.71,15.02,11.46,22.97,27.48,27.13,45.38,3.4,14.61,3.4,29.49.61,44.28-4.53,24.02-21.67,38.6-45.87,38.69-6.23.02-12.48-.72-18.68-1.44-6.98-.8-13.92-2.04-20.89-2.95-20.34-2.66-36.81-12.29-50.1-27.67-5.66-6.55-6.83-14.19-3.54-21.93,3.96-9.31,8.8-18.24,13.22-27.26ZM793.47,412.49c-.51-2.07-.65-6.27-2.5-9.48-6.71-11.63-17.02-19.09-30.55-18.13-15.48,1.1-31.13,2.54-46.01,7.82-3.56,1.26-4.55,4.15-2.36,7.18,8.8,12.11,19.59,22.18,31.65,30.97,5.82,4.24,12.42,6.51,19.36,7.86,15.73,3.07,29.76-8.29,30.41-26.22Z"/>
</svg>