<?xml version="1.0" encoding="UTF-8"?>
<svg id="Layer_1" data-name="Layer 1" xmlns="http://www.w3.org/2000/svg" viewBox="0 0 1000 1000">
  <defs>
    <style>
      .cls-1 {
        fill: #000;
        stroke-width: 0px;
      }
    </style>
  </defs>
  <path class="cls-1" d="M511.49,193.88c24.23.67,48.47,1.47,72.71,1.96,11.06.23,21.85,2.33,32.37,5.14,22.41,5.99,38.96,19.19,47.54,41.44,2.3,5.95,3.42,12.01,3.96,18.25,1.71,19.82-1.47,39-8.05,57.64-2.86,8.09-6.46,15.92-9.6,23.92-2.57,6.53-5.15,13.06-7.39,19.71-6.45,19.14-2.51,37.14,7.02,54.13,4.19,7.48,9.46,14.36,14.37,21.42,8.53,12.27,15.72,25.31,20.45,39.45,10.77,32.21,10.9,64.52-.82,96.58-8.42,23.03-21.22,43.52-37.1,62.1-14.74,17.24-29.64,34.35-44.49,51.5-19.97,23.06-39.93,46.13-59.99,69.12-6.17,7.07-12.3,14.22-19.03,20.74-18.09,17.54-39.93,27.11-65.08,28.67-16.44,1.02-32.82.7-48.67-4.95-13.45-4.8-25.69-11.44-35.52-22-13.62-14.64-17.24-31.13-8.82-49.65,4.21-9.25,8.22-18.64,13.2-27.48,16.5-29.29,33.39-58.37,50.18-87.5,1.16-2.02,2.7-3.81,4.06-5.71,1.82-2.54,5.83-3.71,8.25-2.45,3.01,1.58,4.89,4.17,4.86,7.42-.04,3.86-.37,7.86-1.47,11.54-3.11,10.48-6.7,20.83-10.05,31.24-2.4,7.43-4.63,14.92-7.11,22.33-5.47,16.31-3.89,32.49,1.22,48.43,4.58,14.29,13.94,23.76,28.71,28.38,17.52,5.47,33.86,3.14,50.04-4.51,19.32-9.14,36.2-21.6,51.11-36.82,35.25-35.98,59.36-78.33,72.09-127.04,5.14-19.68,9.15-39.55,9.38-60.09.22-18.95-2.48-37.42-7.34-55.62-2.62-9.81-5.67-19.51-8.63-29.23-9.9-32.47-14.67-65.58-12.04-99.54.66-8.56,2.19-17.06,2.97-25.61.78-8.55,1.66-17.15,1.54-25.71-.27-18.1-7.14-33.69-20.79-45.59-19.02-16.58-41.29-24.94-66.77-23.76-28.9,1.34-53.92,19.09-62.92,50.89-2.98,10.53-4.72,21.34-5.46,32.34-.36,5.36-1.98,10.66-3.32,15.92-.74,2.91-4.79,5.17-7.33,4.5-32.22-8.44-55.87-27.27-69.29-58.03-5.38-12.33-8.35-25.24-5.05-38.82,3.72-15.33,15.23-26.46,30.69-28.32,15.52-1.86,31.13-3.18,46.74-3.97,19.53-.98,39.09-1.18,58.64-1.72,0-.22.01-.45.02-.67Z"/>
  <path class="cls-1" d="M263.97,596.7c-.4-9.19,1.75-18.24,4.99-27.14,5.08-13.98,8.49-28.32,10.85-43.07,4.46-27.9.18-54.44-10.25-80.28-2.33-5.78-5.42-11.25-7.88-16.98-9.01-20.94-2.52-38.6,18.11-48.76,6.28-3.09,12.81-5.56,19.87-6.78,23.07-3.98,46.05-8.52,69.13-12.47,26.16-4.48,52.4-8.47,78.58-12.84,16.77-2.8,32.55.71,47.94,6.95,1.14.46,1.86,2.24,2.52,3.53.77,1.5-.97,5-2.91,5.79-3.59,1.45-7.16,3.07-10.89,4.05-24.14,6.36-48.38,12.37-72.47,18.95-8.23,2.25-16.31,5.37-24.11,8.84-15.69,6.99-23.88,19.69-25.38,36.55-.9,10.11-1.3,20.29-1.33,30.43-.06,20.32.16,40.63.53,60.95.14,7.8,1.23,15.46,4.08,22.94,8.72,22.88,27.58,28.4,47.27,21.95,8.09-2.65,15.75-6.79,23.33-10.78,10.36-5.45,20.43-11.45,30.7-17.09,3.4-1.86,6.87-3.86,10.56-4.78,1.69-.42,4.57,1.11,5.91,2.63,3.88,4.42,3.66,9.24.02,12.38-1.18,1.02-2.3,2.14-3.57,3.04-43.29,30.88-87.55,60.16-135.59,83.31-8.47,4.08-17.1,7.62-26.09,10.32-6.89,2.07-13.96,2.45-20.88,1.1-13.15-2.55-22.63-10-27.79-22.62-3.9-9.56-5.68-19.47-5.24-30.11Z"/>
  <path class="cls-1" d="M742.17,690.28c-.75,46.55-30.94,86.39-74.83,98.99-14.09,4.05-27.77,3.3-40.25-5.24-9.56-6.53-14.84-15.56-15.79-27.26-.98-11.96,1.19-23.18,6.34-33.99,14.24-29.87,37.02-49.32,69.15-57.98,12.19-3.29,24.4-4.79,36.93-3.98,9.95.64,17.44,7.78,18.4,17.8.37,3.85.06,7.77.06,11.66Z"/>
</svg>