<?xml version="1.0" encoding="UTF-8"?>
<svg id="Layer_1" data-name="Layer 1" xmlns="http://www.w3.org/2000/svg" viewBox="0 0 1000 1000">
  <defs>
    <style>
      .cls-1 {
        fill: #000;
        stroke-width: 0px;
      }
    </style>
  </defs>
  <path class="cls-1" d="M616.99,500.03c-18.95.51-37.3-3.78-55.78-6.85-6.16-1.03-12.31-2.22-18.38-3.69-23.98-5.84-47.92-4.78-72.14-1.17-33.99,5.08-67.95,10.74-102.44,11.52-7.1.16-13.87,1.51-20.68,3.61-11.03,3.39-16.78,10.9-18.74,21.76-1.94,10.77-3.58,21.59-5.4,32.38-.78,4.63-1.74,9.22-2.47,13.85-1.37,8.81.41,17.29,4.21,25.09,5.19,10.64,13.84,16.98,26.1,16.54,5.38-.19,10.89-1.19,16.02-2.81,8.18-2.58,16.17-5.78,24.11-9.07,21.65-8.96,43.2-18.14,64.85-27.1,2.04-.84,4.52-1.07,6.73-.87,1.3.12,2.83,1.41,3.58,2.6.7,1.11,1.17,3.26.56,4.13-2.66,3.81-5.55,7.5-8.72,10.89-16.18,17.34-34.75,31.24-56.77,40.61-27.31,11.61-54.26,24.07-81.49,35.9-7.86,3.42-16.07,6.1-24.22,8.79-8.33,2.74-17.01,2.79-25.55,1.45-9.52-1.5-17.57-6.23-24.42-13-12.66-12.51-19.63-28.14-23.87-45.01-1.89-7.53-2.78-15.46-2.96-23.23-.43-18.39,3.64-35.66,14.64-50.9,4.11-5.7,7.9-11.63,11.65-17.57,3.85-6.1,5.48-12.96,5.75-20.07.3-7.97-1.3-15.63-5.91-22.29-3.1-4.49-6.69-8.64-9.98-13-3.29-4.36-6.8-8.6-9.68-13.23-9.3-14.95-11.11-30.64-3.95-47.03,6.62-15.13,15.02-29.24,25.66-41.84,8.49-10.05,19.75-15.25,33.02-15.1,7.8.09,15.59,1,23.39,1.43,14.83.83,29.65,1.99,44.49,2.28,19.87.39,38.88-3.52,56.2-13.76,12.62-7.46,26.01-10.62,40.47-7.5,2.91.63,5.67,2.49,8.13,4.28.8.59,1.06,3.11.49,4.14-1.1,1.99-2.66,4.1-4.58,5.17-4.76,2.65-9.76,4.91-14.78,7.04-23.01,9.76-46.08,19.37-69.09,29.14-7.91,3.36-15.7,6.97-23.51,10.55-2.95,1.35-6.63,6.1-5.59,6.8,2.52,1.72,5.23,3.27,8.07,4.35,2.14.81,4.59.92,6.92,1.09,27.29,2.01,54.58,3.98,81.87,5.95,6.24.45,12.51.59,18.72,1.3,8.57.98,16.85,2.94,24.6,7.14,15.5,8.39,32.24,11.45,49.79,10.81,12.51-.46,24.93-1.01,37.3-3.5,13.77-2.77,27.77-4.42,41.68-6.51,10.61-1.59,16.88-8.17,19.09-18.11,3.56-16.01,6.47-32.17,9.41-48.31,6.99-38.44,13.8-76.91,20.75-115.35.97-5.38,2.47-10.67,3.43-16.05,1.85-10.36,6.2-12.31,17.04-8.04,9.68,3.82,17.2,10.8,22.9,19.46,4.86,7.37,7.09,15.6,6.25,24.53-1.19,12.64-4.72,24.59-11.2,35.48-7.59,12.76-15.58,25.29-23.46,37.88-3.32,5.3-6.89,10.44-10.18,15.76-3.72,6.01-6.45,12.45-8.42,19.27-2.69,9.28-2.64,18.45-.08,27.74,2.3,8.35,5.66,16.22,9.9,23.74,7.29,12.94,14.47,25.94,21.99,38.74,6.76,11.52,12.71,23.42,16.28,36.27,15.19,54.63-.88,100.02-41.55,137.84-5.11,4.75-10.34,9.66-17.31,11.67-.94.27-3.36-1.16-3.44-1.96-.38-3.82-.81-7.81-.1-11.53,4.98-26.09,10.24-52.13,15.38-78.19,1.66-8.43,3.42-16.86,4.73-25.35.71-4.59.98-9.34.72-13.98-.5-8.82-7.77-16.36-16.58-16.9-7.78-.48-15.62-.1-23.43-.1Z"/>
  <path class="cls-1" d="M782.72,721c-.13,21.05.82,42.11-2.75,63.01-2.31,13.54-9.89,22.65-22.71,27.17-4.33,1.53-9.04,2.71-13.6,2.76-12.46.13-24.96.06-37.38-.86-10.07-.75-20.05-2.81-30.05-4.39-3.62-.57-6.45-4.72-5.83-8.78,1.41-9.23,3.29-18.4,4.49-27.66,1.1-8.47,2.01-17.02,2.18-25.55.28-14.02-5.55-25.7-15.44-35.39-2.77-2.72-5.78-5.27-8.97-7.46-11.16-7.65-10.59-12.01-.65-22.12,19.45-19.8,42.55-33.88,68.79-42.88,7.52-2.58,15.2-3.1,23.04-2.93,20.22.45,33.37,16.87,35.52,31.42.57,3.85.95,7.74,1.17,11.63.78,14.01,1.46,28.02,2.17,42.03Z"/>
  <path class="cls-1" d="M394.68,316.74c-19.83.99-33.34-5.86-44.26-18.11-4.13-4.63-7.78-9.76-11.12-15-8.83-13.87-14.86-29.03-20.73-44.36-8.27-21.6.71-41.52,18.55-52.38,2.52-1.54,6.93-1.05,8.51,1.26,2.18,3.2,4.54,6.34,6.26,9.78,16.35,32.76,32.56,65.6,48.86,98.39,2.43,4.89,5.05,9.73,4.73,15.37-.07,1.24-1.35,3.16-2.43,3.46-3.69,1.01-7.54,1.44-8.37,1.58Z"/>
  <path class="cls-1" d="M351.7,789.17c-.75.13-1.53.48-2.23.37-13.66-2.19-25.08-8.28-33.45-19.52-5-6.71-6.36-14.02-3.61-22.11,3.3-9.74,8.37-18.42,14.7-26.48,15.04-19.14,32.68-35.69,51.31-51.22,3.52-2.94,7.7-5.11,11.65-7.53.42-.26,1.44.01,1.9.38.57.46,1.26,1.35,1.17,1.93-.39,2.27-.75,4.63-1.7,6.69-3.27,7.08-6.79,14.05-10.21,21.06-3.76,7.72-7.63,15.39-11.22,23.18-8.57,18.64-14.2,37.97-13.83,58.75.07,3.83-.53,7.73-1.31,11.5-.24,1.17-2.06,2.01-3.16,2.99Z"/>
</svg>