<?xml version="1.0" encoding="UTF-8"?>
<svg id="Layer_1" data-name="Layer 1" xmlns="http://www.w3.org/2000/svg" viewBox="0 0 1000 1000">
  <defs>
    <style>
      .cls-1 {
        fill: #000;
        stroke-width: 0px;
      }
    </style>
  </defs>
  <path class="cls-1" d="M481.79,373.38c-25.45,11.19-53.27,16.15-79.11,26.93,1.01,1.72,1.45,3.41,2.53,4.13,2.57,1.7,5.34,3.2,8.21,4.32,16.73,6.52,33.54,12.82,50.26,19.36,22.22,8.7,45.19,11.86,68.95,10.06,7.78-.59,15.61-.77,23.42-.85,26.22-.27,48.76,8.93,68.3,26.29,21.91,19.48,35.12,43.71,39.97,72.42,3.2,18.95.81,37.3-7.49,54.86-7.06,14.94-16.08,28.54-26.39,41.4-25.91,32.33-51.71,64.74-77.51,97.15-8.76,11.01-17.44,22.08-26.06,33.2-21.09,27.21-49.01,42.81-82.52,49.41-14.66,2.89-29.32,4.41-44.24,4.06-26.51-.63-50.59-8.93-72.89-22.78-3.92-2.44-7.49-5.66-10.67-9.04-4.36-4.65-6.76-10.33-7.45-16.82-1.44-13.79,2.05-26.21,9.21-37.95,15.6-25.58,34.36-48.42,57.65-67.36,5.44-4.42,11.18-8.49,16.95-12.49,1.1-.76,2.96-.57,4.47-.57,1.48,0,2.01,3.92.83,6.36-1.02,2.1-2.12,4.17-3.21,6.24-7.33,13.85-13.14,28.33-18.06,43.18-1.47,4.44-2.76,8.95-3.9,13.49-2.52,10.02.51,18.63,7.57,25.73,13.03,13.11,28.57,21.66,47.02,24.35,3.83.56,7.86.83,11.66.28,22.93-3.36,43.71-11.57,60.69-27.92,2.25-2.17,4.48-4.37,6.61-6.65,32.61-34.91,62.47-72.03,89.31-111.55,3.5-5.15,6.45-10.68,9.49-16.13,3.9-6.99,5.24-14.64,5.59-22.55.5-11.34-2.31-21.76-8.99-30.89-4.14-5.65-8.58-11.18-13.54-16.11-16.15-16.06-34.29-29.54-54.11-40.83-15.87-9.04-32.94-14.26-50.89-16.62-16.61-2.18-32.63,1.46-48.51,5.95-9.01,2.54-18.01,5.14-27.13,7.23-19.81,4.56-39.92,7.36-60.14,9.36-6.21.61-12.37,1.79-18.58,2.48-4.65.52-9.33.97-14,.94-6.04-.04-10.4-3.47-13.02-8.58-2.12-4.14-3.58-8.66-4.95-13.14-4.56-14.94-8.95-29.93-13.38-44.91-.66-2.24-1.39-4.49-1.78-6.79-1.67-9.93.94-18.7,8.03-25.8,8.91-8.92,19-16.34,30.81-20.94,33.47-13.02,67.33-24.97,101.67-35.53,2.23-.69,4.51-1.28,6.82-1.67,21.12-3.58,38.59,2.35,51.41,20.03.81,1.12.66,2.93,1.12,5.28Z"/>
  <path class="cls-1" d="M339.65,183.86c35.7,2.61,66.87,4.89,98.05,7.17,3.12.23,6.23.57,9.35.77,31.2,2.01,62.43,3.59,93.58,6.13,28.02,2.28,56.06,5.02,83.09,13.52,7.42,2.33,14.76,5.09,21.85,8.28,4.2,1.89,8.21,4.62,11.65,7.7,5.4,4.83,8.45,11,8.78,18.52.5,11.22-1.95,21.7-6.76,31.75-3.1,6.48-6.86,7.6-12.85,3.42-5.77-4.02-11.37-8.28-17.18-12.24-23.72-16.16-49.96-25.68-78.42-28.75-26.98-2.91-52.97,2.05-78.03,11.85-19.76,7.73-31.59,22.41-35.26,43.35-1.48,8.45-2.3,17.02-3.56,25.51-.47,3.17-5.81,6.6-9.09,5.89-13.01-2.81-25.84-6.25-37.41-13.08-35.58-21.02-57.49-52.18-67.18-92.04-2.43-9.98-2.2-20.15,1.65-29.99,1.87-4.77,5.34-7.59,10.55-7.75,3.9-.12,7.81-.02,7.18-.02Z"/>
  <path class="cls-1" d="M718.56,704.98c-.03,10.81-1.64,20.76-6.38,30.01-14.71,28.67-37.61,47.48-68.61,56.07-9.91,2.75-20.04,2.83-29.73-1.93-10.66-5.24-16.81-13.69-18.46-25.33-2.03-14.38.28-27.82,8.04-40.45,13.05-21.23,30.45-37.55,52.93-48.2,6.28-2.98,13.1-5.15,19.9-6.66,19.17-4.26,39.7,7.03,41.72,30.03.21,2.33.42,4.67.58,6.47Z"/>
</svg>