<?xml version="1.0" encoding="UTF-8"?>
<svg id="Layer_1" data-name="Layer 1" xmlns="http://www.w3.org/2000/svg" viewBox="0 0 1000 1000">
  <defs>
    <style>
      .cls-1 {
        fill: #000;
        stroke-width: 0px;
      }
    </style>
  </defs>
  <path class="cls-1" d="M295.97,358.83c7.71,1.06,15.51,1.73,23.12,3.28,10.82,2.2,21.7,2.39,32.65,2.52,16.06.19,30.81-4.4,44.78-11.88,6.19-3.31,12.03-7.37,18.41-10.26,14.21-6.43,28.96-2.49,39.86,10.27.69.8.55,3.63-.11,4.05-3.91,2.45-7.92,4.95-12.22,6.55-21.94,8.15-44,16-65.98,24.04-6.59,2.41-13.19,4.84-19.56,7.75-17.75,8.13-28.15,21.79-30.11,41.45-.54,5.43-1.19,10.89-1.15,16.33.25,35.16.62,70.32,1.09,105.48.12,9.37.66,18.74,1.1,28.1.3,6.32,1.97,12.31,4.8,17.99,3.08,6.19,8.21,9.34,14.94,9.61,7.86.32,15.62-.68,22.93-3.78,7.18-3.04,14.35-6.13,21.39-9.48,20.44-9.72,40.78-19.67,61.25-29.34,4.91-2.32,10.09-4.08,15.23-5.85,3.22-1.11,7.89,1.34,9.32,5.27.7,1.91.48,4.63-.38,6.5-.91,1.99-2.82,3.77-4.71,5.01-7.17,4.72-14.34,9.48-21.8,13.7-36.71,20.75-73.51,41.34-110.29,61.98-3.4,1.91-6.88,3.68-10.29,5.59-16.99,9.48-35.21,12.1-54.36,10.12-15.69-1.62-28.61-8.45-37.32-21.47-17.18-25.69-21.88-53.14-8.89-82.21,3.5-7.83,7.88-15.26,11.66-22.97,4.14-8.45,7.4-17.15,8.23-26.69,1.39-16.08-1.65-31.1-9.94-44.97-3.21-5.36-6.56-10.64-10.01-15.85-9.83-14.82-10.71-30.38-5.02-46.99,4.67-13.63,11.95-25.36,22.33-35.25,13.72-13.08,29.88-19.56,49.07-18.59Z"/>
  <path class="cls-1" d="M443.39,813.69c-21.07.81-39.3-3.31-56.99-9.86-9.56-3.54-18.43-8.63-25.72-15.95-3.29-3.31-6.5-6.82-9.09-10.68-7.91-11.76-10.49-24.42-4.32-37.75,2.93-6.33,6.08-12.76,10.28-18.27,21.77-28.61,43.9-56.95,65.98-85.31,1.39-1.79,3.31-3.65,5.36-4.32,1.96-.63,4.86-.43,6.52.67,1.61,1.06,3.37,4,2.98,5.62-1.25,5.27-3.21,10.42-5.32,15.43-5.45,12.96-11.32,25.74-16.65,38.75-2.95,7.21-5.85,14.56-7.55,22.12-3.55,15.8.87,29.2,13.51,39.85,17.57,14.8,37.3,19.29,59.08,12.08,28.7-9.51,53.66-24.65,73.38-48.29,29.56-35.42,58.08-71.63,85.25-108.9,9.81-13.45,16.5-28.22,19.66-44.65,2.1-10.91,2.58-21.78.12-32.58-2.43-10.64-5.25-21.21-8.32-31.69-3.07-10.48-6.83-20.77-10.01-31.22-6.87-22.56-10.03-45.8-11.12-69.25-1.46-31.6,3.55-62.28,15.08-91.84,2.55-6.54,5.03-13.13,7.06-19.85,4.09-13.57,5.77-27.48,5.45-41.67-.12-5.45-.09-10.92,2.49-16.04,1.61-3.2,6.11-6.54,9.31-5.79,6.81,1.58,13.93,2.66,20.22,5.49,9.16,4.13,14.29,11.76,14.58,22.23.24,8.71-1.3,16.98-4.2,25.23-7.3,20.83-18.1,39.77-30.19,58.06-5.6,8.47-11.77,16.6-16.88,25.35-8.72,14.93-10.27,31.1-5.25,47.52,2.03,6.63,5.47,12.96,9.04,18.97,14.02,23.58,25.3,48.45,35.52,73.83,2.91,7.23,5.29,14.69,7.55,22.16,8.49,28.07,3.85,54.07-13,77.9-4.05,5.73-8.61,11.12-13.12,16.51-41.17,49.12-82.81,97.85-123.43,147.42-26.11,31.86-59.75,46.53-99.9,48.69-3.12.17-6.25.02-7.36.02Z"/>
  <path class="cls-1" d="M778.95,669.78c-2.08,40.25-14.75,74.49-43.1,102.11-18.63,18.15-40.78,28.27-66.78,30.1-7.93.56-15.74-.27-23.1-2.75-15.77-5.31-23.58-17.42-25.27-33.37-.73-6.88-.33-14.12.93-20.93,3.96-21.28,13.83-39.6,29.31-54.85,12.94-12.74,27.88-22.48,44.31-30.06,19.25-8.89,39.73-13.69,60.28-18.26.76-.17,1.55-.2,2.32-.29,9.13-1.06,17.12,4.28,19.16,13.43,1.18,5.28,1.42,10.77,1.93,14.86Z"/>
  <path class="cls-1" d="M404.56,314.73c-9.78,8.01-21.4,7.44-33.09,5.52-2.93-.48-5.69-2.45-8.34-4.05-6.1-3.72-10.67-9.06-14.82-14.76-14.86-20.4-24.83-43.18-32.53-67.05-.24-.74-.42-1.5-.57-2.27-3.25-15.83-.1-29.48,13.7-39.34,3.15-2.25,6.56-4.13,9.9-6.1,1.74-1.02,5.2-.23,6.38,1.41,1.81,2.52,3.91,4.91,5.25,7.66,17.4,35.75,34.72,71.54,51.97,107.36,1.67,3.47,3.19,7.11,2.15,11.62Z"/>
</svg>