<?xml version="1.0" encoding="UTF-8"?>
<svg id="Layer_1" data-name="Layer 1" xmlns="http://www.w3.org/2000/svg" viewBox="0 0 1000 1000">
  <defs>
    <style>
      .cls-1 {
        fill: #000;
        stroke-width: 0px;
      }
    </style>
  </defs>
  <path class="cls-1" d="M556.06,675.9c13.49-13.05,27.13-25.95,40.42-39.2,9.47-9.44,17.05-20.28,22.34-32.71,5.47-12.87,1.52-24.61-9.6-33.08-8.81-6.72-18.96-10.98-29.39-14.27-16.38-5.16-32.95-9.69-49.45-14.47-4.5-1.3-9.04-2.44-13.52-3.78-16.73-4.98-28.91-15.16-35.33-31.61-5.87-15.03-7.54-16.43-24.17-7.87-7.64,3.93-15.31,7.82-23.02,11.61-7.73,3.79-15.81,6.47-24.18,8.67-23.28,6.12-44.9,1.86-65.69-9.05-4.15-2.18-8.19-4.58-12.14-7.11-29.06-18.55-56.37-39.41-82.13-62.3-4.08-3.62-8.09-7.43-11.51-11.66-8.2-10.14-11.78-21.87-10.78-34.95.44-5.78,2.92-10.5,7.29-14.18,6.06-5.1,13.11-8.33,20.51-11.05,9.64-3.54,19.8-4.41,29.73-6.46,29.93-6.19,60.31-8.68,90.71-10.79,13.24-.92,26.54-.35,39.8,1.29,10.85,1.35,21.81,1.81,32.72,2.7,3.89.32,7.8.69,11.01,3.31.6.49,1.59,1.26,1.5,1.69-.3,1.33-.69,3.17-1.67,3.73-2.66,1.5-5.54,2.95-8.5,3.53-16.86,3.3-33.77,6.37-50.67,9.46-12.42,2.27-24.1,6.52-34.81,13.23-1.94,1.21-3.5,3.04-5.2,4.62-1.24,1.15-.5,5.23,1.06,6.1,2.04,1.14,3.99,2.51,6.14,3.39,34.69,14.21,69.58,27.86,105.39,39.06,32.22,10.08,65.3,15.45,98.79,18.81,22.97,2.31,44.13,10.06,63.37,22.66,7.14,4.68,13.91,10.18,19.96,16.2,17.6,17.48,22.57,38.71,16.7,62.54-3.99,16.18-11.56,30.72-21.93,43.68-12.21,15.26-24.48,30.49-37.24,45.28-15.32,17.76-31.14,35.09-46.85,52.51-19.38,21.48-39.15,42.62-58.21,64.37-14.42,16.45-31.89,27.07-52.99,32.6-34.01,8.91-68.04,9.05-102.09,1.1-8.3-1.94-16.42-5.21-24.16-8.86-21.37-10.1-27.15-26.83-26.49-45.49.27-7.78,1.61-15.56,4.81-22.84,2.2-5,4.01-10.22,6.69-14.96,17.57-31.06,43.54-52.66,75.97-66.88.63-.27,1.96-.28,2.15.05.71,1.26,1.84,2.98,1.47,4.04-2.34,6.6-5,13.1-7.64,19.59-4.41,10.85-8.81,21.71-13.36,32.51-2.79,6.62-3.64,13.51-3.81,20.61-.27,11.04,4.05,19.9,12.95,26.16,13.01,9.17,27.6,14.45,43.48,15.99,17.71,1.71,34.14-2.5,49.59-10.96,10.36-5.67,19.48-12.97,27.86-21.29,18.31-18.18,36.73-36.26,55.1-54.37-.32-.32-.63-.64-.95-.95Z"/>
  <path class="cls-1" d="M425.15,306.56c0,6.2.14,12.41-.14,18.6-.04.98-1.91,1.99-3.09,2.74-.58.37-1.55.41-2.28.26-15.3-3.07-30.53-6.52-45.19-11.93-25.23-9.32-41.27-26.97-48.02-53.25-2.95-11.5-4.18-23.02-3.62-34.77.76-16.12,10.26-28.37,25.84-32.19,11.34-2.78,22.85-4.93,34.68-4.94,46.84-.03,93.68-.31,140.51-.41,19.72-.04,38.74,4.46,57.41,10.1,20.21,6.1,39.17,15.24,57.64,25.52,23.17,12.89,32.49,32.45,21.43,61.45-2.22,5.82-4.4,11.75-7.48,17.12-6.97,12.16-14.37,24.09-21.95,35.88-.95,1.48-4.24,2.49-6.06,2.07-1.88-.43-3.76-2.64-4.76-4.53-1.03-1.95-1.32-4.46-1.38-6.73-.22-8.58-.19-17.17-.3-25.76-.1-7.86-1.59-15.43-3.89-22.98-5.27-17.36-16.04-30.17-31.51-39.09-10.91-6.29-22.71-10.31-35.28-11.75-29.17-3.33-57.6,0-85.29,9.71-.74.26-1.49.47-2.22.74-22.25,8.15-33.81,24.09-34.63,47.75-.19,5.46-.03,10.93-.03,16.39-.14,0-.27,0-.41,0Z"/>
  <path class="cls-1" d="M634.47,805.55c-6.13-.92-12.48-1.14-18.34-2.93-10-3.06-18.06-9.36-23.28-18.52-3.85-6.75-7.08-13.88-10.22-21-2.65-6.02-2.07-12.14.58-18.15,11.19-25.44,26.54-47.58,49.46-64.01,22.19-15.9,44.13-32.17,66.29-48.11,5.68-4.08,11.77-7.6,17.73-11.28,5.47-3.38,11.65-4.39,17.92-4.74,15.53-.88,27.19,6.71,32.36,21.55,3.88,11.13,6.41,22.71,4.76,34.5-1.51,10.77-3.19,21.72-6.66,31.96-18.71,55.1-57.45,87.53-114.18,98.98-2.28.46-4.64.66-6.97.76-3.11.13-6.24.03-9.36.03-.03.32-.07.64-.1.96Z"/>
  <path class="cls-1" d="M358.81,621.73c-4.06-.3-5.27-1.21-4.95-2.74.3-1.43.77-3.35,1.82-4.01,21.19-13.26,42.47-26.39,63.8-39.42,1.05-.64,2.8-.28,4.21-.16,1.48.12,2,4.42.82,6.36-.8,1.33-1.53,2.71-2.39,4-9.96,14.84-23.96,24.44-40.38,30.76-5.08,1.96-10.37,3.49-15.68,4.73-2.99.7-6.2.42-7.25.47Z"/>
</svg>