<?xml version="1.0" encoding="UTF-8"?>
<svg id="Layer_1" data-name="Layer 1" xmlns="http://www.w3.org/2000/svg" viewBox="0 0 1000 1000">
  <defs>
    <style>
      .cls-1 {
        fill: #000;
        stroke-width: 0px;
      }
    </style>
  </defs>
  <path class="cls-1" d="M487.09,532.14c.75,2.07,2.53,4.37,2.04,5.97-9.06,29.01-25.64,51.61-54.92,63.03-29.11,11.35-58.21,22.75-87.42,33.86-5.79,2.2-11.99,3.6-18.12,4.6-8.71,1.43-17.19-3.71-20.7-12-2.75-6.5-5.33-13.13-5.23-20.32.13-9.37.1-18.79,1.15-28.07,1.23-10.85,3.64-21.57,5.38-32.37,5.3-32.82,4.93-65.4-4.01-97.66-1.45-5.23-2.43-10.66-2.98-16.06-1.22-12.01,3.88-21.39,13.51-28.13,5.09-3.56,10.58-6.85,16.36-9.05,32.13-12.2,64.23-24.5,96.68-35.81,22.64-7.9,44.7-4.99,65.15,7.87,1.9,1.19,3.49,3.2,4.6,5.18.59,1.07.41,3.61-.4,4.22-3.06,2.34-6.34,4.56-9.85,6.13-19.95,8.98-40.01,17.71-59.98,26.66-2.78,1.25-5.26,3.18-7.8,4.91-1.87,1.27-1.85,7.25-.09,8.63,1.21.95,2.28,2.26,3.65,2.78,23.36,8.97,46.93,17.14,71.65,21.72,14.04,2.6,27.84,2.69,41.91.07,23.1-4.29,46.45-6.83,69.99-5.76,7.75.35,15.54,1.65,23.14,3.26,9.76,2.07,16.92,8.24,21.2,17.07,3.39,7,5.62,14.56,8.46,21.83,3.4,8.72,3.55,12.93-8.36,17.83-10.89,4.49-22.09,7.77-33.95,8.42-21.97,1.19-43.84.63-65.2-5.26-27.07-7.47-54.08-7-81.06.05-18.89,4.94-37.69,10.21-56.51,15.42-3.68,1.02-5.63,4.94-5.9,9.12-.81,12.91,13.64,25.68,27,21.77,8.22-2.4,16.28-5.47,24.17-8.82,8.59-3.65,16.54-8.82,26.41-11.12Z"/>
  <path class="cls-1" d="M697.84,258.9c-.55,21.1-6.74,35.16-16.62,47.8-1.25,1.6-4.49,1.48-6.19-.38-5.27-5.77-10.38-11.68-15.74-17.36-15.77-16.72-33.65-30.44-55.82-37.57-18.01-5.79-36.22-8.53-55.4-5.56-23.5,3.64-45.33,11.59-66.43,22.05-3.48,1.73-6.9,3.75-9.97,6.12-9.07,7-14.84,16.05-15.57,27.72-.54,8.58-.61,17.19-1.03,25.77-.19,3.85-4.3,6.8-8.46,6.03-4.59-.85-9.35-1.43-13.64-3.14-30.74-12.23-55.4-31.95-72.47-60.52-15.06-25.21-19.11-52.57-14.94-81.37.33-2.28,4.3-5.34,6.93-5.18,4.67.28,9.39.39,13.97,1.2,16.15,2.85,32.31,5.73,48.37,9.05,36.87,7.62,74.28,10.32,111.71,13.01,13.26.95,26.51,2.04,39.77,2.88,13.27.84,26.54,1.7,39.83,2.1,13.34.4,26.52,1.96,39.62,4.32,13.27,2.4,25.54,7.37,36.33,15.51,10.67,8.04,16.45,18.66,15.75,27.53Z"/>
  <path class="cls-1" d="M387.74,816.62c-8.62.54-18.34-1.71-27-7.74-9.53-6.64-14.83-15.7-15.66-27.4-1.08-15.24,2-29.54,9.83-42.64,7.2-12.04,14.46-24.09,22.34-35.7,19.26-28.41,38.85-56.59,58.42-84.79,2.64-3.81,5.88-7.23,8.99-10.69,2.39-2.66,8.56-.65,9.38,3.09.49,2.22,1.13,4.74.57,6.81-3.06,11.27-6.12,22.56-9.84,33.63-5.71,16.99-12.1,33.76-17.91,50.71-3.03,8.84-5.62,17.84-8.13,26.84-6.41,22.97-7.05,46.12-1.68,69.4.35,1.52.66,3.05.92,4.58.45,2.67-1.47,6.77-3.7,7.98-8.83,4.78-13.08,5.8-26.51,5.91Z"/>
</svg>