<?xml version="1.0" encoding="UTF-8"?>
<svg id="Layer_1" data-name="Layer 1" xmlns="http://www.w3.org/2000/svg" viewBox="0 0 1000 1000">
  <defs>
    <style>
      .cls-1 {
        fill: #000;
        stroke-width: 0px;
      }
    </style>
  </defs>
  <path class="cls-1" d="M352.27,619.63c1.06-6.49,5.6-11.09,9.12-16.16,22.74-32.75,45.65-65.39,68.46-98.1,3.57-5.12,6.96-10.37,10.28-15.66,2.23-3.55.94-7.41-3.05-9.82-2-1.21-3.95-2.52-6.05-3.52-3.52-1.69-7.07-3.33-10.71-4.71-28.92-10.97-44.51-32.73-51.58-62.07-4.84-20.11-5.26-40.22-2.88-60.55.68-5.85,4.89-9.7,10.83-10.68,11.43-1.88,21.66,1.55,31.3,7.23,6.81,4.01,12.3,9.59,17.43,15.54,8.73,10.12,15.58,21.48,22.29,32.98,5.51,9.44,11.2,18.8,17.45,27.75,2.58,3.7,6.75,6.32,10.32,9.3,1.61,1.34,5.05.76,6.25-.97,5.77-8.35,11.72-16.6,17.17-25.16,34.01-53.41,67.89-106.91,101.87-160.35,3.77-5.93,7.79-11.7,11.8-17.47,1.59-2.3,5.68-3.19,8.47-2.19,9.68,3.47,18.48,8.38,25.98,15.5,6.02,5.72,9.19,12.69,8.33,20.99-.48,4.6-1.19,9.44-3.07,13.59-4.18,9.23-8.66,18.39-13.9,27.05-27.96,46.13-56.18,92.1-84.32,138.12-3.67,6-7.44,11.94-11.02,18-1.98,3.36-3.77,6.84-5.42,10.37-4.98,10.6-4.77,21.27.43,31.67,2.79,5.57,6.12,10.9,9.46,16.17,13.83,21.78,27.86,43.43,41.59,65.27,4.99,7.93,9.43,16.21,14,24.39,5.17,9.26,3.56,18.15-2.13,26.48-3.08,4.5-6.59,8.74-10.2,12.84-3.09,3.51-6.57,6.69-9.95,9.94-3.05,2.94-6.73,3.81-10.8,2.74-12.41-3.27-23.07-9.51-31.62-19.14-5.19-5.85-10.31-11.76-15.28-17.8-14.92-18.11-29.74-36.29-44.61-54.43-1.98-2.42-4.04-4.77-6.13-7.09-2.08-2.31-6.58-2.39-8.33-.06-3.26,4.37-6.59,8.71-9.53,13.29-20.73,32.22-41.04,64.7-62.12,96.68-21.51,32.64-43.67,64.84-65.7,97.13-3.95,5.79-8.19,11.51-13.02,16.55-16.23,16.94-40.23,16.06-55.59-1.7-8.67-10.02-9.95-26.12-2.14-37.04,5.43-7.6,11.55-14.79,17.93-21.63,19.2-20.59,38.72-40.88,58.05-61.36,8.59-9.1,17.09-18.28,25.48-27.55,3.99-4.41,3.48-6.69-1.88-11.37-1.1-.96-2.15-1.98-3.24-2.98Z"/>
  <path class="cls-1" d="M618.72,647.73c5.13-.28,8.25,2.24,11.33,4.46,13.4,9.61,25.67,20.55,36.1,33.32,8.4,10.28,16.65,20.75,24.04,31.76,17.85,26.61,35.21,53.55,52.62,80.45,2.51,3.88,4.25,8.27,6.25,12.46.76,1.59-.98,4.94-2.79,5.77-.71.32-1.33.89-2.06,1.11-26.15,7.69-52.42,8.54-78.49.13-15.81-5.1-29.72-13.61-41.4-25.72-20.22-20.98-31.94-46.01-36.4-74.6-1.74-11.12.36-21.98,4.24-32.22,5.6-14.77,14.1-27.78,26.57-36.91Z"/>
  <path class="cls-1" d="M389.38,326.26c-10.59-1.47-23.02-2.75-35.28-5.02-10.83-2-20.59-6.97-29.76-13.14-11.79-7.93-21.6-17.93-30.64-28.74-12.55-15.02-23.21-31.34-32.88-48.34-1.15-2.03-2.46-4.03-3.24-6.2-4.29-11.96-2.87-23.08,5.56-32.86,5.75-6.67,13.13-11.22,21.43-13.75,10.47-3.19,20.37-.84,28.31,6.55,5.07,4.72,9.35,10.45,13.22,16.24,9.1,13.62,17.77,27.54,26.57,41.36,13.83,21.73,27.66,43.45,41.39,65.24,2.48,3.93,4.48,8.16,6.61,12.3,1,1.94-.63,5.36-2.48,5.48-2.32.15-4.63.44-8.82.86Z"/>
</svg>