<?xml version="1.0" encoding="UTF-8"?>
<svg id="Layer_1" data-name="Layer 1" xmlns="http://www.w3.org/2000/svg" viewBox="0 0 1000 1000">
  <defs>
    <style>
      .cls-1 {
        fill: #000;
        stroke-width: 0px;
      }
    </style>
  </defs>
  <path class="cls-1" d="M270.87,511.59c-.51-22.13-1.1-44.02-1.47-65.91-.13-7.8.06-15.62.53-23.4.57-9.33,5.72-16.13,13.42-20.82,5.31-3.24,10.99-5.96,16.72-8.42,10.77-4.61,21.65-8.94,32.56-13.22,18.17-7.14,36.56-13.74,54.53-21.34,16.37-6.93,32.74-10.05,50.19-4.89,5.2,1.54,10.68,2.07,15.94,3.42,4.1,1.05,6.14,8.68,3.35,11.93-1.5,1.76-3.06,3.54-4.85,4.98-9.84,7.93-20.71,13.85-32.94,17.37-5.97,1.72-11.95,3.87-17.39,6.81-12.22,6.6-20.53,16.7-24.14,30.29-1.4,5.28-2.97,10.63-3.39,16.03-1.99,25.81-1.95,51.57,3.41,77.06.48,2.28.81,4.76,1.96,6.71,1.95,3.32,4.09,6.73,6.89,9.29,4.25,3.88,9.7,5.65,15.22,3.26,7.14-3.09,14.06-6.76,20.9-10.48,7.55-4.1,14.87-8.6,22.36-12.82,3.59-2.02,7.92-1.31,10.34,2.1,1.22,1.72,1.66,4.26,1.67,6.44,0,1.33-1.37,2.74-2.31,3.98-12.23,16.24-24.52,32.42-36.73,48.68-4.34,5.78-9.6,10.16-16.58,12.45-27.45,9-54.9,18-82.28,27.2-9.08,3.05-18.34,3.71-27.76,3.42-9.99-.3-18.31-6.78-19.78-16.65-1.26-8.45-1.58-17.11-1.52-25.67.15-22.67.73-45.34,1.13-67.78Z"/>
  <path class="cls-1" d="M380.86,814.55c-14.96.28-29.64-1.63-44.08-5.51-8.37-2.25-16.31-5.51-23.34-10.61-5.13-3.72-9.11-8.45-11.19-14.67-1.79-5.33-2.3-10.48-.92-16.07,2.3-9.32,7.15-17.3,12.15-25.24,20.4-32.42,40.79-64.85,61.36-97.17,8.8-13.82,18.03-27.36,27.15-40.98.28-.42,1.5-.45,2.2-.3.53.12,1.34.82,1.34,1.26,0,3.86.36,7.81-.32,11.57-5.41,29.98-11.07,59.92-16.56,89.9-2.11,11.53-4.08,23.08-5.89,34.66-1.02,6.51,2.26,10.89,8.34,11.64,21.28,2.61,42.07.85,62.31-6.66,15.5-5.75,29.97-13.39,43.29-23.1,12.63-9.21,24.83-19.01,37.36-28.37,13.77-10.29,27.59-20.52,41.61-30.47,3.76-2.67,8.23-4.39,12.53-6.17.9-.37,2.57.81,3.71,1.55.27.17.02,1.58-.35,2.2-.8,1.32-1.74,2.58-2.79,3.7-28.81,30.87-57.58,61.77-86.5,92.54-5.88,6.26-12.06,12.29-18.51,17.96-19.71,17.35-42.25,29.21-67.95,35.25-11.59,2.72-23.24,2.74-34.93,3.07Z"/>
  <path class="cls-1" d="M322.55,177.19c12.21.89,27.5,3.66,42.19,9.28,13.14,5.02,22.41,14.05,26.95,27.42,3.26,9.59,6.59,19.22,8.81,29.07,4.97,22.06,9.38,44.24,13.74,66.43,1.2,6.08,1.55,12.34,2.07,18.54.32,3.85-3.85,7.1-7.9,6.2-4.55-1.01-9.11-2.07-13.55-3.47-24.06-7.6-42.92-22.07-55.68-43.83-6.3-10.74-12.16-21.87-16.82-33.39-7.6-18.78-14.25-37.94-20.9-57.09-3.75-10.8,1.88-18.68,12.96-19.15,1.56-.07,3.12,0,8.12,0Z"/>
  <path class="cls-1" d="M692.61,822.81c-7.99-1.03-20.42-2.44-32.78-4.29-17.79-2.66-35.32-6.61-52.61-11.56-4.49-1.29-9.01-2.73-13.22-4.72-18.23-8.62-29.09-28.68-26.04-48.25,5.18-33.23,21.29-60.05,47.93-80.55.61-.47,1.34-1.05,2.04-1.1,1.41-.1,3.26-.37,4.15.37.97.81,1.89,3.15,1.4,4.01-3.85,6.76-7.87,13.44-12.19,19.91-4.83,7.23-8.57,14.89-10.69,23.33-4.34,17.26,2.82,33.23,18.84,41.23,7,3.49,14.4,5.94,22.35,6.63,17.91,1.57,35.8,3.48,53.71,5.11,11.2,1.02,21.29,4.66,30.17,11.65,5.02,3.95,6.55,9.44,3.22,14.31-3.52,5.15-7.22,10.22-11.3,14.91-6.77,7.78-10.52,9.23-24.95,9Z"/>
</svg>