<?xml version="1.0" encoding="UTF-8"?>
<svg id="Layer_1" data-name="Layer 1" xmlns="http://www.w3.org/2000/svg" viewBox="0 0 1000 1000">
  <defs>
    <style>
      .cls-1 {
        fill: #000;
        stroke-width: 0px;
      }
    </style>
  </defs>
  <path class="cls-1" d="M507.32,516.09c-6.35.36-9.72,2.34-12.92,4.59-7.68,5.39-15.18,11.05-22.98,16.24-7.15,4.75-14.36,9.52-21.99,13.41-16.35,8.32-33.77,11.83-52.19,10.46-13.67-1.02-25.75-6.03-36.91-13.62-12.46-8.47-22.49-19.4-30.81-31.84-6.95-10.39-13.49-21.06-20.02-31.72-9.79-16-19.42-32.1-29.09-48.18-4.48-7.45-7.7-15.31-8.32-24.14-.89-12.58,3.2-23.12,12.86-31.21,10.39-8.71,22.22-14.54,35.86-15.93,17.1-1.75,34.22-3.38,51.35-4.84,29.59-2.52,59.19-5,88.81-7.23,10.9-.82,21.85-1.19,32.78-1.17,6.49.02,11.98,3.05,16,8.39,1.22,1.62,1.07,2.71-.2,3.99-2.93,2.96-6.59,3.95-10.51,4.55-20.85,3.18-41.69,6.38-62.54,9.59-11.01,1.69-20.9,6.29-30.34,11.93-3.33,1.99-6.5,4.37-9.42,6.94-11.21,9.86-14.47,22.2-9.49,36.08,7.65,21.31,21.32,37.98,40.78,49.77,16.29,9.87,33.81,11.22,52.04,7.51,5.35-1.09,10.64-2.46,16-3.48,21.15-4,42.09-1.37,62.91,2.47,16.26,2.99,32.61,3.6,49.05,2.96,3.89-.15,7.92-.31,11.61-1.41,10.3-3.07,18.12-9.21,21.17-19.97,1.27-4.47,2.36-9.16,2.43-13.76.11-7.79-.18-15.65-1.14-23.38-3.78-30.26-7.35-60.51-8.46-91.03-.57-15.62-2.11-31.2-3.16-46.81-.75-11.1-3.91-21.54-9.07-31.3-13.53-25.61-35.09-39.1-63.77-41.39-17.51-1.4-34.27,1.45-49.92,9.75-16.15,8.57-26.5,21.24-29.5,39.77-2.13,13.16-4.71,26.1-1.87,39.53,1.36,6.42-2.5,10.11-9.44,9.86-4.66-.16-9.5-.18-13.92-1.44-30.93-8.87-54.15-27.16-67.92-56.67-6.17-13.22-7.93-26.94-4.07-41.09,3.42-12.5,11.73-20.46,24.51-22.2,15.48-2.1,31.1-3.12,46.68-4.46,14.02-1.21,28.04-2.28,42.07-3.3,39.87-2.9,79.69-3.18,119.27,3.4,13.94,2.32,27.37,6.45,39.65,13.68,21.21,12.49,32.49,30.71,32.86,55.7.25,16.69-3.15,32.55-8.51,48.2-4.3,12.55-9.18,24.88-12.15,37.91-6.52,28.64-3.5,55.88,10.44,81.79,4.07,7.57,8.55,14.92,12.64,22.48,7.84,14.49,13.8,29.6,17.51,45.8,5.24,22.9,3.12,44.99-4.43,66.87-7.25,21.03-18.87,39.61-33.84,55.77-31.92,34.48-61.03,71.24-90.17,108.01-8.25,10.41-16.83,20.59-25.59,30.57-5.15,5.86-10.64,11.5-16.54,16.6-22.71,19.63-49.06,29.95-79.22,30.54-29.45.58-57.24-6.5-84.18-17.69-3.08-1.28-4.89-3.92-4.71-7.36.2-3.88.23-7.88,1.24-11.58,6.17-22.6,12.54-45.15,19.03-67.67.85-2.93,2.51-5.72,4.23-8.27.62-.92,2.69-1.51,3.86-1.23,1.26.3,2.86,1.59,3.23,2.79.91,2.95,1.27,6.07,1.73,9.15.94,6.17,1.56,12.4,2.74,18.52,4.03,20.78,20.54,34.94,42.83,37.01,20.95,1.95,40.16-2.77,58.01-14.23,44.68-28.67,82.46-64.35,112.24-108.41,16.26-24.06,29.43-49.75,40.43-76.57,1.47-3.57,2.38-7.43,3.08-11.23.22-1.17-.98-2.72-1.81-3.9-.31-.44-1.55-.6-2.17-.37-5.1,1.86-10.24,3.63-15.19,5.83-12.85,5.69-25.64,11.54-38.41,17.41-10.71,4.92-22.03,8.07-33.42,10.69-5.97,1.38-12.52,1.7-18.59.9-11.44-1.51-20.16-8.07-26.44-17.69-5.2-7.96-7.7-17.05-10.29-26.06-2.15-7.46-4.03-15-6.31-23.57Z"/>
  <path class="cls-1" d="M647.46,741.95c-.52-23.48,13.32-51.75,43.52-61.87,6.75-2.26,13.78-2.3,20.74-.59,9.75,2.39,16.15,10.36,16.31,20.15.09,5.52-.79,10.77-3.1,15.87-9.56,21.05-25.52,34.9-47.24,42.26-4.41,1.5-8.98,2.54-13.53,3.56-9.56,2.15-14.3-1.43-15.76-11.75-.43-3.08-.76-6.17-.94-7.62Z"/>
</svg>