<?xml version="1.0" encoding="UTF-8"?>
<svg id="Layer_1" data-name="Layer 1" xmlns="http://www.w3.org/2000/svg" viewBox="0 0 1000 1000">
  <defs>
    <style>
      .cls-1 {
        fill: #000;
        stroke-width: 0px;
      }
    </style>
  </defs>
  <path class="cls-1" d="M530.93,472.13c-1.07,68.02-2.15,136.03-3.2,204.05-.12,7.82-.28,15.64-.12,23.45.06,3.07.88,6.14,1.47,9.19.53,2.75,5.17,5.06,7.32,3.63,3.24-2.16,6.52-4.28,9.56-6.7,15.91-12.65,31.69-25.46,47.64-38.06,3.64-2.88,7.73-5.19,11.69-7.65,1.99-1.24,5.65-.11,5.98,1.81.25,1.44.54,3.28-.12,4.38-1.58,2.64-3.49,5.17-5.64,7.37-27.37,27.91-54.52,56.05-82.36,83.49-12.22,12.04-25.77,22.74-38.95,33.77-12.29,10.28-26.7,16.16-42.5,18.31-6.13.84-12.57,1.37-18.63.48-27.84-4.08-55.2-10.61-82.47-17.45-5.68-1.42-9.43-5.15-11.8-10.49-3.64-8.18-5.21-16.48-1.15-24.9,10.84-22.5,21.79-44.95,32.86-67.34.52-1.04,2.66-1.91,3.91-1.76,1,.12,2.4,1.83,2.57,2.99,1.41,9.27,2.58,18.57,3.79,27.86.81,6.19,1.27,12.44,2.39,18.58,2.41,13.19,11.08,20.2,23.75,22.63,7.67,1.47,15.42,2.48,23.15,3.65,2.96.45,6.69-1.42,7.7-4.07,1.67-4.35,3.59-8.69,4.57-13.21,14.32-66.43,28.5-132.89,42.72-199.34,2.62-12.22,5.35-24.42,7.83-36.67.61-3.02.49-6.19.64-9.3.08-1.58-3.29-3.96-4.97-4.06-4.87-.27-9.11,1.6-13.54,3.16-3.65,1.28-7.53,2.29-11.36,2.47-1.93.09-5.07-1.46-5.75-3.08-2.09-4.98-3.74-10.27-4.69-15.59-1.79-9.99-3.08-20.08-4.37-30.16-.49-3.86-.74-7.81-.56-11.69.86-18.26,7.65-33.33,23.85-43.16,3.98-2.42,8.06-4.7,11.85-7.39,1.05-.74,1.35-2.68,1.73-4.14.11-.42-.62-1.38-1.17-1.6-5.05-2.02-10.06-4.23-15.26-5.8-11.95-3.62-24.04-6.8-35.99-10.4-3.7-1.11-7.27-2.83-10.65-4.71-.98-.55-1.68-2.67-1.51-3.94.16-1.22,1.45-3.02,2.52-3.25,3-.64,6.15-.86,9.23-.79,14.07.32,28.13.9,42.2,1.11,2.09.03,4.3-1.22,6.26-2.23,1.87-.97.84-4.33-2.39-8.06-1.54-1.77-3.12-3.51-4.69-5.24-2.1-2.31-4.28-4.56-6.33-6.93-2.56-2.95-5.1-5.93-7.5-9.01-17.68-22.67-22.36-47.53-13.05-75,5.57-16.45,13.65-31.46,23.86-45.46,11.65-15.98,34.87-19.73,50.74-12.57,4.07,1.84,7.72,5.35,10.62,8.87,4.51,5.47,7,12.07,8.45,19.1,2.24,10.81,2.58,21.69,2.36,32.67-.68,34.4-1.36,68.79-1.83,103.19-.52,38.31-.81,76.62-1.2,114.94.18,0,.35,0,.53,0Z"/>
  <path class="cls-1" d="M601.18,757.8c.25-16.03,4.64-28.96,14.62-39.72,1.39-1.5,3.21-1.33,3.74.34,1.63,5.13,3.39,10.28,4.31,15.56,2.97,17.03,12.98,27.75,28.93,33.43,5.84,2.08,11.7,4.1,17.5,6.29,3.23,1.22,5.27,4.67,4.2,7.25-2.36,5.71-4.45,11.64-7.62,16.9-3.41,5.65-9.2,8.45-15.86,8.15-13.58-.61-26.02-4.72-36.25-13.95-10.55-9.52-14.48-21.79-13.57-34.25Z"/>
</svg>