<?xml version="1.0" encoding="UTF-8"?>
<svg id="Layer_1" data-name="Layer 1" xmlns="http://www.w3.org/2000/svg" viewBox="0 0 1000 1000">
  <defs>
    <style>
      .cls-1 {
        fill: #000;
        stroke-width: 0px;
      }
    </style>
  </defs>
  <path class="cls-1" d="M517.96,247.17c-21.01-1.4-40.11,4.83-58.09,15.11-13.81,7.9-25.25,18.36-33.72,31.94-2.9,4.64-5.52,9.51-8.89,13.79-3.84,4.88-7.9,9.84-12.72,13.67-9.64,7.66-20.3,10.55-32.86,6.67-20.89-6.46-38.06-17.87-51.33-35.19-7.17-9.36-12.82-19.59-17.46-30.43-5.87-13.73-9.51-28.12-12.91-42.57-1.06-4.49-1.29-9.38-.77-13.95.42-3.7,1.88-7.68,4.04-10.72,6.76-9.53,16.36-14.69,28.04-14.34,6.93.21,14.01,1.49,20.68,3.45,32.38,9.52,65.34,14.96,99.02,17.58,31.24,2.43,62.48,3.08,93.75,3.97,14.86.42,29.75.67,44.35,3.87,5.32,1.17,10.6,2.62,15.74,4.39,37.7,12.96,52.98,43.58,49,80.83-1.15,10.81-4.06,21.49-6.83,32.06-8.72,33.26-17.75,66.43-26.65,99.64-1.21,4.53-1.85,9.26-3.55,13.59-3.98,10.16-2.17,17.52,7.48,23.94,11.03,7.34,21.05,16.21,31.41,24.55,7.34,5.9,13.93,12.57,19.43,20.26,22.26,31.11,22.66,59.38.4,90.95-4.95,7.01-10.65,13.52-16.23,20.06-41.14,48.2-83.65,95.18-127.21,141.21-3.23,3.41-6.49,6.78-9.77,10.13-23.86,24.37-53.15,37.97-86.5,43.35-8.49,1.37-17.03,2.58-25.59,3.28-27.7,2.26-54.58-1.69-80.54-11.57-5.06-1.93-10.06-4.39-14.54-7.42-10.78-7.3-14.43-18.01-13.04-30.62.87-7.86,3.67-15.19,7.07-22.25,10.99-22.83,25.94-42.78,44.66-59.78,13.9-12.63,28.49-24.42,46.03-31.81.96-.4,2.73.83,3.96,1.58.39.24.53,1.5.29,2.08-1.51,3.57-2.93,7.21-4.81,10.59-6.08,10.93-12.46,21.69-18.5,32.64-3.4,6.15-6.53,12.46-9.46,18.85-1.28,2.79-2.06,5.92-2.51,8.97-1.25,8.39,1.44,15.43,8.12,20.77,5.57,4.45,11.96,7.28,18.73,9.44,21.26,6.76,42.9,8.54,64.85,4.67,14.84-2.62,28.28-8.91,40.55-17.54,5.74-4.04,11.21-8.52,16.5-13.15,35.96-31.47,69.46-65.41,101.24-101.07,3.63-4.08,7.35-8.22,10.19-12.84,4.07-6.62,8.35-13.39,10.82-20.68,6.78-20.06,3.78-38.49-11.34-54.24-6.04-6.28-12.84-11.52-20.78-15.02-7.86-3.46-15.82-6.78-23.95-9.52-19.24-6.49-38.56-12.73-57.93-18.83-21.37-6.72-42.72-7.27-64.66-1.5-28.72,7.55-57.91,13.02-87.57,15.74-10.09.92-20.1,2.88-30.08,4.72-3.2.59-5.4,3.21-5.95,6.52-2.72,16.48-2.03,32.75,3.87,48.52,5.38,14.37,18.9,21.91,33.72,18.56,10.69-2.41,20.87-6.4,30.92-10.83,11.43-5.03,23.06-9.62,34.65-14.3,2.84-1.15,6.55,1.51,6.67,4.42.5,11.56-3.3,21.53-11.36,29.74-6.08,6.2-13.34,10.87-21.14,14.59-9.87,4.71-19.94,9-29.84,13.67-26.85,12.67-53.63,25.48-80.47,38.16-6.35,3-12.62,6.42-19.3,8.43-10.59,3.19-20.43.93-27.39-8.11-4.24-5.51-7.7-11.75-10.74-18.03-7.62-15.73-9.89-32.87-11.86-49.96-.91-7.91,2.02-15.47,4.65-22.8,2.11-5.87,4.9-11.51,7.67-17.11,15.3-30.96,14.7-61.77-.87-92.39-4.27-8.39-7.69-17.05-10.52-26.04-2.64-8.39-3.16-16.83-2.93-25.48.4-14.9,10.14-33.25,32.39-38.22,15.27-3.41,30.92-4.56,46.61-4.91,18.86-.42,37.25-3.79,55.38-8.99,11.35-3.25,21.9-8.22,32.3-13.67,18-9.44,36.13-8.86,53.98.19,7.63,3.87,14.81,8.62,22.05,13.21,1.02.65,1.44,2.62,1.67,4.06.3,1.85-.78,2.98-2.57,3.35-.76.16-1.47.52-2.23.64-20.06,3.21-40.15,6.26-60.17,9.65-7.69,1.3-15.38,2.89-22.84,5.14-15.35,4.64-28.25,13.21-38.18,25.93-1.39,1.79-2.31,4.12-2.83,6.35-.29,1.23.34,3.67,1.19,4.02,5.02,2.04,10.11,4.34,15.4,5.24,31.57,5.38,63.2,10.45,94.83,15.53,10.79,1.73,21.42,4.08,32.46,4.58,38.27,1.74,77.69-21.32,89.16-65.1,5.36-20.46,9-41.21,12.78-61.96,1.12-6.15,1.92-12.36,2.91-18.53,2.14-13.29-1.94-24.79-10.6-34.66-11.89-13.55-27.23-20.68-45-22.6-4.64-.5-9.37-.08-14.06-.08Z"/>
  <path class="cls-1" d="M776.72,672.08c-2.05,32.38-12.77,61.92-35.12,86.7-23.23,25.75-51.56,42.57-86.12,48.2-3.08.5-6.11,1.28-9.16,1.97-16.97,3.84-40.16-5.97-49.66-27.12-1.56-3.48-2.56-7.44-2.8-11.25-.48-7.77-.43-15.59-.28-23.39.19-9.84,4.37-18.13,10.93-25.2,3.18-3.42,6.73-6.51,10.26-9.59,33.63-29.29,69.67-55.36,106.97-79.73,3.25-2.13,6.66-4.07,10.17-5.75,12.19-5.87,24.94-3.07,33.85,7.2,5.82,6.71,8.88,14.67,10.14,23.29.68,4.61.55,9.34.82,14.67Z"/>
</svg>