<?xml version="1.0" encoding="UTF-8"?>
<svg id="Layer_1" data-name="Layer 1" xmlns="http://www.w3.org/2000/svg" viewBox="0 0 1000 1000">
  <defs>
    <style>
      .cls-1 {
        fill: #000;
        stroke-width: 0px;
      }
    </style>
  </defs>
  <path class="cls-1" d="M440.01,786.17c-33.49.91-60.89-10.72-84.15-32.47-4.5-4.21-8.44-9.26-11.69-14.52-5.21-8.43-6.05-17.74-2.21-27.01,2.08-5.03,4.46-10.05,7.5-14.54,21.08-31.05,42.31-62,63.68-92.86,2.61-3.77,6.24-6.87,9.58-10.09,1.74-1.68,6.81.52,7.94,2.82,1.85,3.75,1.98,7.77.98,11.42-2.26,8.26-4.93,16.43-8.01,24.42-2.52,6.55-6.15,12.67-8.79,19.17-3.23,7.95-6.66,15.94-8.75,24.23-5.4,21.45.19,43.35,27.56,55.24,11.54,5.01,23.65,6.6,36.64,3.87,21.36-4.49,39.6-13.66,54.83-29.41,40.25-41.59,80.8-82.9,121.12-124.43,5.43-5.6,10.71-11.47,15.2-17.83,15.04-21.3,21.05-44.91,17.78-71.01-1.87-14.93-6.57-28.9-11.9-42.78-3.07-7.98-7.34-15.57-8.02-24.32-.05-.63.59-1.47,1.14-1.95.46-.41,1.32-.72,1.9-.59,1.5.32,3.23.55,4.36,1.45,13.65,10.76,24.86,23.67,33.94,38.5,7.1,11.6,10.78,24.31,12.05,37.65,1.14,11.89-2,23.31-5.89,34.41-5.75,16.39-14.97,30.88-25.05,44.9-9.58,13.33-19.35,26.55-28.35,40.27-8.55,13.03-17.14,26.15-22.29,41.04-.39,1.13.68,2.84,1.29,4.19.11.24,1.38.21,1.94-.05,2.11-.98,4.34-1.87,6.2-3.23,4.42-3.22,8.69-6.65,12.96-10.08,30.49-24.48,60.97-48.98,91.45-73.48,2.44-1.96,4.81-4,7.26-5.94,11.42-9.05,24.31-13.93,39.01-13.66,3.13.06,6.27.24,9.38.03,10.87-.75,17.78,4.86,22.24,14.02,2.73,5.6,5.46,11.31,7.19,17.26,2.44,8.39,2.31,17.07-.66,25.4-1.83,5.14-4.09,10.16-6.52,15.04-16.05,32.21-33.57,63.6-53,93.91-2.53,3.95-5.32,7.73-7.85,11.68-9.31,14.49-22.45,23.96-38.92,28.32-23.4,6.2-46.77,12.63-71.02,14.87-3.06.28-6.14,1.02-9.04,2.02-1.24.43-2.41,1.93-2.99,3.22-1.03,2.29-.4,4.75,1.51,6.22,3.07,2.36,6.27,4.72,9.77,6.3,12.89,5.82,26.46,9.37,40.43,11.53,20.07,3.1,40.17,6.06,60.18,9.52,9.96,1.72,19.78,4.34,29.6,6.79,1.3.32,2.37,1.94,3.33,3.13.84,1.03-1.82,4.4-3.96,4.89-2.25.52-4.62,1.44-6.8,1.14-8.51-1.16-17-2.57-25.44-4.16-30.7-5.81-61.39-11.63-92.04-17.67-9.18-1.81-18.31-4.02-27.28-6.69-5.19-1.54-10.12-4.14-14.95-6.66-15.91-8.31-24-22-25.71-39.45-1.22-12.48-.74-25,1.88-37.36,1.62-7.64,3.27-15.27,2.11-23.18-.24-1.66-3.94-3.78-5.32-2.79-3.79,2.71-7.74,5.26-11.22,8.32-15.85,13.96-31.51,28.12-47.34,42.09-5.86,5.17-11.85,10.21-18.06,14.96-21.22,16.23-45.21,24.39-70.71,23.96Z"/>
  <path class="cls-1" d="M168.26,482.02c.64-27.5,3.89-50.63,11.69-72.99,7.84-22.48,19.89-42.38,36.57-59.41,13.02-13.3,28.64-21.92,47.29-23.34,10.84-.83,22.06-.88,32.73.94,28.1,4.8,55.95,3.7,84.03.21,22.48-2.79,45.11-4.36,67.7-6.15,9.39-.74,18.81-.31,27.46,4.25,2.04,1.08,3.91,2.5,5.84,3.8,1.73,1.16,2.82,5.12,1.59,6.24-1.06.96-2.15,2.39-3.38,2.56-24.75,3.43-49.51,6.91-74.31,9.97-27.93,3.45-55.64,8.12-83.06,14.41-6.78,1.55-13.52,4-19.76,7.09-9.79,4.84-15.4,12.98-15.71,24.25-.32,11.75-.09,23.48,2.32,35.03,3.87,18.52,4.57,37.22,3.47,56.01-.92,15.61-2.17,31.19-3.3,46.79-1.07,14.83-1.5,29.57,1.08,44.4,3.01,17.33,16.95,22.25,28.99,20.11,12.33-2.2,24.27-5.77,35.88-10.57,25.25-10.44,50.56-20.75,75.93-30.92,6.48-2.6,13.23-4.54,19.9-6.67.54-.17,1.81.39,1.99.89.45,1.27,1.13,3.15.56,3.98-5.91,8.52-14.01,14.79-22.86,19.8-41.49,23.45-83.08,46.72-124.79,69.77-6.09,3.36-12.95,5.4-19.55,7.75-17.61,6.26-33.9,2.56-49.12-7.23-7.93-5.1-14.59-11.73-20.75-18.88-13.4-15.56-23.71-33-31.27-52.01-11.99-30.15-17.24-61.58-17.14-90.04Z"/>
  <path class="cls-1" d="M468.17,166.52c36.31-.54,63.64-.94,90.98-1.35,24.78-.37,47.9,6.12,69.69,17.43,27.43,14.23,43.63,36.85,49.67,67.16,2.88,14.46.41,27.95-5.28,41.08-5.66,13.05-14.17,24.22-23.89,34.5-9.07,9.59-14.73,12.94-16.83,10.2-4.57-5.99-4.01-13.12-4.07-19.96-.05-5.44,1.08-10.88,1.35-16.33.47-9.35,1.34-18.75.86-28.07-1.62-31.52-21.73-55.91-52.36-64.35-18.45-5.08-36.9-5.98-55.39-.18-14.14,4.43-28.29,8.8-42.42,13.25-2.97.94-6.01,1.83-8.77,3.23-8.8,4.47-15.06,11.17-16.71,21.22-.89,5.37-1.45,10.82-1.66,16.26-.3,7.8-.02,15.62-.2,23.43-.26,11.11-1.97,12.93-13.65,14.72-20.07,3.08-38.74-1.41-56.43-10.81-7.04-3.74-12.51-9.32-17.07-15.76-13.79-19.5-21.57-41.49-25.67-64.77-2.3-13.07,4.43-25.03,16.06-31.16,7.75-4.08,16.01-5.86,24.75-6.18,32-1.2,63.99-2.6,87.03-3.56Z"/>
  <path class="cls-1" d="M766.02,372.21c-.77,2.99-1.51,7.61-3.13,11.89-3.38,8.92-9.57,15.94-16.52,22.28-3.61,3.3-8.17,4.77-12.87,4.62-22.14-.71-40.72-9.22-54.91-26.4-3.09-3.74-3.62-8.57-1.61-13.25.91-2.13,1.96-4.25,3.27-6.15,10.41-15.15,24.58-25.86,40.92-33.74,10.44-5.03,21.83-2.62,30.04,5.68,9.16,9.25,13.66,20.58,14.8,35.07Z"/>
</svg>