<?xml version="1.0" encoding="UTF-8"?>
<svg id="Layer_1" data-name="Layer 1" xmlns="http://www.w3.org/2000/svg" viewBox="0 0 1000 1000">
  <defs>
    <style>
      .cls-1 {
        fill: #000;
        stroke-width: 0px;
      }
    </style>
  </defs>
  <path class="cls-1" d="M483.3,381.35c-11.64,0-22.56.11-33.49-.03-10.3-.13-20.24,1.93-29.96,4.94-15.44,4.79-27.76,13.96-36.78,27.45-1.12,1.67-.17,5.29,1.65,5.92,3.67,1.28,7.28,3.05,11.07,3.63,32.44,4.95,64.82,10.38,97.39,14.23,24.04,2.84,48.32,3.89,72.61,2.52,13.27-.75,26.56-1.34,39.84-1.86,5.46-.21,10.94-.01,16.42-.02,14.11-.02,23.45,7.21,29.53,19.4,4.6,9.21,6.74,19.13,8.15,29.22,1.64,11.71-1.64,15.59-13.61,16.34-17.95,1.12-35.91,2.16-53.86,3.24-19.65,1.19-39.11-.93-58.33-4.56-34.28-6.48-68.36-6.62-102.32,1.57-18.21,4.39-36.32,9.23-54.47,13.88-2.26.58-4.52,1.23-6.73,1.96-3.6,1.2-6.22,5.08-6.42,8.94-.62,12.13,2.67,23.21,9.07,33.38,3.51,5.58,8.68,8.84,15.35,9.58,9.59,1.07,18.62-.61,27.26-4.91,11.88-5.91,23.78-11.79,35.8-17.43,2.73-1.28,5.94-1.58,8.96-2.22,2.1-.44,4.4,2.5,3.65,4.58-5.28,14.82-12.86,28.41-22.47,40.83-6.36,8.21-14.73,14-24.14,18.16-10,4.42-20.18,8.44-30.29,12.6-20.22,8.33-40.48,16.56-60.65,25.01-10.97,4.59-22.43,6.7-34.18,7.54-11.87.85-18.96-3.53-24.1-14.61-4.68-10.08-7.38-20.68-6.83-31.8.69-14.05,1.47-28.11,2.99-42.09,1.77-16.3,4.76-32.47,6.5-48.78,1.66-15.58,1.49-31.13-2.54-46.57-3.15-12.06-6.92-24.1-7.2-36.75-.14-6.24-.33-12.51.21-18.71,1.02-11.81,7.37-20.39,17.56-26.11,6.84-3.84,14.06-6.73,21.94-7.84,7.74-1.09,15.4-2.82,23.17-3.64,24.28-2.57,47.46-9.17,70.09-18.11,7.98-3.15,16.03-6.36,24.33-8.39,26.2-6.42,47.7,1.65,64.45,22.51,1.05,1.31.28,4.08.38,6.97Z"/>
  <path class="cls-1" d="M308.85,213.23c.75-6.01.99-11.52,2.19-16.81,3.04-13.38,12.7-20,25.88-17.65,6.11,1.09,12.05,3.19,18.04,4.92,15.01,4.31,29.96,8.68,45.42,11.34,28.58,4.92,57.36,7.34,86.28,8.28,21.88.71,43.78,1.11,65.68,1.3,30.88.26,60.47,6.54,89.03,18.08,1.45.58,2.93,1.08,4.4,1.6,12.05,4.3,19.29,13.28,22.69,25.09,4.21,14.62,3.64,29.33-1.71,43.72-1.06,2.86-5.19,4.39-7.71,2.68-8.4-5.71-16.77-11.45-25.1-17.25-23.99-16.71-50.17-28.4-78.65-35.21-31.21-7.46-58.78-.42-83.29,19.76-12.84,10.57-22.74,23.63-30.93,38-3.48,6.11-6.79,12.33-9.86,18.65-3.24,6.67-8.96,8.8-15.51,7.98-9.27-1.15-18.46-2.8-27.32-6.28-40.85-16.02-66.9-44.89-76.75-87.85-1.56-6.8-1.93-13.88-2.79-20.36Z"/>
  <path class="cls-1" d="M404.95,815.38c-23.55-.65-46.66-4.07-69.03-11.5-6.61-2.19-13.07-5.1-19.17-8.46-3.26-1.79-6.01-4.94-8.27-8.01-3.44-4.65-4.03-10.06-2.08-15.6,2.64-7.49,7.44-13.69,12.11-19.94,20.08-26.9,40.21-53.77,60.32-80.65,7.95-10.63,15.79-21.34,23.9-31.84,2.83-3.66,6.32-6.81,9.5-10.21,1.3-1.39,2.63-1.45,4.27-.55,1.94,1.07,3.65,3.87,3.05,5.73-1.92,5.93-3.79,11.88-5.9,17.74-7.92,22.02-15.96,44-23.86,66.03-2.1,5.87-3.95,11.84-5.74,17.81-1.09,3.64.74,8.34,3.7,10.34,13.25,8.98,28.02,13.84,43.83,14.85,11.01.71,21.6-2.43,31.87-6.42,11.02-4.29,20.77-10.73,30.37-17.46,33.23-23.31,66.43-46.67,99.72-69.9,3.76-2.63,7.98-4.66,12.16-6.58.68-.31,3.17,1.29,3.28,2.2.28,2.21.37,4.98-.72,6.73-4.12,6.6-8.13,13.43-13.27,19.21-24.9,28.01-49.94,55.9-75.36,83.44-18.51,20.06-41.6,32.68-68.15,38.81-15.29,3.53-30.89,4.24-46.51,4.21Z"/>
  <path class="cls-1" d="M654.92,676.6c-3.7,4.6-7.56,9.44-11.46,14.25-6.9,8.52-13.15,17.46-17.86,27.41-4.89,10.33-3.42,19.99,4.38,27.98,5.52,5.65,12.03,9.84,19.18,13.19,22.86,10.73,46.39,18.51,72.1,17.25,1.56-.08,3.13-.02,4.69.03,8.99.27,13.83,5.86,12.91,15.22-.38,3.87-1.34,7.68-2.05,11.51-2.28,12.31-8.69,15.57-19.15,17.35-6.09,1.04-12.5,1.11-18.67.57-21.77-1.89-43.6-3.27-65.04-7.98-7.71-1.69-14.94-4.23-21.77-8.18-16.26-9.41-23.18-28.54-19.63-44.09,3.65-16.01,8.26-31.72,15.22-46.66,8.62-18.47,22.6-31.56,40.8-40.31,1.16-.56,2.97.04,4.42.36.55.12.94.97,1.93,2.09Z"/>
</svg>