<?xml version="1.0" encoding="UTF-8"?>
<svg id="Layer_1" data-name="Layer 1" xmlns="http://www.w3.org/2000/svg" viewBox="0 0 1000 1000">
  <defs>
    <style>
      .cls-1 {
        fill: #000;
        stroke-width: 0px;
      }
    </style>
  </defs>
  <path class="cls-1" d="M492.48,572.16c.8-7.44,2.09-19.09,3.3-30.74.89-8.51,2.97-16.97,1.01-25.59-.39-1.74-1.53-2.82-3.38-2.32-2.96.79-6.03,1.58-8.67,3.06-6.8,3.84-13.32,8.19-20.09,12.09-6.11,3.52-12.59,6.11-19.5,7.84-10.06,2.51-18.68-.44-26.19-6.64-4.15-3.42-7.87-7.71-10.74-12.27-18.37-29.23-32.75-60.47-44.97-92.67-5.36-14.12-2.97-27.73,7.04-39.54,3.53-4.16,7.21-8.21,10.56-12.52.81-1.04,1.11-3.06.69-4.3-.36-1.07-2.02-2.18-3.24-2.36-2.28-.34-4.71-.28-7,.05-18.55,2.71-37.13,5.31-55.62,8.41-6.88,1.15-13.62,3.33-20.3,5.46-2.92.93-5.63,2.71-8.23,4.42-13.6,8.9-19.08,23.49-13.8,38.77,2.53,7.33,6.42,14.22,9.96,21.16,5.34,10.48,9.57,21.26,12.42,32.77,5.67,22.86,2.76,45.02-3.88,67.04-4.28,14.21-8.89,28.32-13.14,42.54-3.39,11.35-4.29,23.13-3.88,34.84.93,26.44,16.23,35.26,38.61,30.9,7.56-1.47,14.97-4.45,22.04-7.65,16.36-7.41,32.45-15.44,48.7-23.1,7.06-3.33,14.12-6.76,21.46-9.38,3.49-1.25,7.62-.94,11.45-.84,1.01.03,2.1,1.79,2.9,2.94.35.51.37,1.66.02,2.17-1.31,1.92-2.49,4.18-4.32,5.42-5.81,3.94-11.65,7.96-17.91,11.08-32.17,16.02-64.47,31.79-96.75,47.59-11.33,5.54-23.09,9.28-35.91,9.68-14.52.44-25.64-5.49-34.47-16.58-6.94-8.71-11.11-18.77-14.53-29.23-8-24.51-16.06-49-24.04-73.52-5.08-15.6-9.79-31.33-15.17-46.83-4.82-13.89-4.88-27.37.34-41.2,12.69-33.63,24.78-67.48,37.66-101.04,3.9-10.15,9.3-19.77,14.56-29.34,2.6-4.74,6.05-9.17,9.79-13.1,6.75-7.09,15.24-11.05,25.18-10.43,6.19.38,12.4,1.38,18.47,2.72,10.67,2.35,21.29,4.96,31.83,7.85,8.39,2.3,16.93,2.83,25.53,3.28,31.43,1.66,62.43-1.98,93.31-7.38,6.89-1.2,13.93-1.55,20.92-2.1,2.77-.22,6.34,2.72,6.87,5.37.61,3.05,1.34,6.12,1.5,9.21.59,11.72.84,23.45,1.49,35.16.39,7.02,1.12,14.03,1.95,21.01,1.74,14.58,8.5,26.62,18.95,36.77,12.38,12.03,26.27,22.17,40.24,32.21,2.31,1.66,7.16.87,8.46-1.44,2.66-4.74,5.35-9.49,7.61-14.44,33.8-73.92,67.54-147.87,101.29-221.82,1.95-4.27,3.75-8.6,5.77-12.83,9.27-19.37,8.65-17.44,28.4-10.25,14.07,5.12,26.53,13.39,37,24.24,3.22,3.34,6.16,7.1,8.52,11.08,4.2,7.08,4.79,14.68,2,22.57-2.37,6.71-5.38,13.1-9.98,18.47-5.58,6.51-11.25,13.06-17.61,18.77-28.38,25.51-49.88,55.96-65.4,90.65-6.05,13.54-11.77,27.3-16.56,41.32-18.24,53.28-40.1,105.12-61.49,157.15-5.83,14.18-14.04,26.08-27.57,33.85-3.8,2.18-7.55,2.1-10.68-.87-3.4-3.22-6.76-6.51-9.98-9.91-9.02-9.53-13.76-20.7-12.85-34.03.21-3.11.03-6.25.03-13.65Z"/>
  <path class="cls-1" d="M826.62,709.79c0,21.11.09,42.22-.05,63.33-.05,7.02-.1,14.14-1.24,21.03-1.92,11.62-8.33,20.02-19.95,23.77-1.49.48-2.92,1.28-4.44,1.5-20.29,2.96-40.48,3.78-60.24-3.19-11.67-4.12-17.49-12.77-17-25.07.09-2.34.18-4.71.59-7,3.69-20.94,2.51-42.1,2.7-63.18.08-9.42-1.01-18.75-3.69-27.81-2.62-8.85-8.3-15.04-17.2-17.69-9.76-2.9-19.75-4.63-29.96-5.26-2.97-.18-5.91-1.57-8.77-2.65-2.83-1.07-3.85-6.09-1.7-7.88,2.37-1.98,4.57-4.35,7.27-5.73,33.37-17.09,66.78-34.11,100.28-50.94,8.39-4.22,17.13-7.5,26.94-6.79,7.58.55,13.53,3.86,17.93,9.72,4.28,5.69,6.98,12.22,7.46,19.44.36,5.46.6,10.93.61,16.4.07,22.67.03,45.35.03,68.02h.43Z"/>
  <path class="cls-1" d="M316.9,235.45c.85-9.06,1.88-19.11,6.13-28.61,4.19-9.38,9.55-17.91,16.31-25.61,3.15-3.59,7.28-3.8,9.8-.41,1.4,1.88,2.83,3.74,4.09,5.7,23.68,36.85,47.35,73.7,70.98,110.59,1.25,1.96,2.09,4.18,3.1,6.28.93,1.94-.03,4.91-1.85,6.1-8.81,5.78-18.77,8.42-28.99,7.77-42.95-2.72-78.63-37.58-79.57-81.81Z"/>
  <path class="cls-1" d="M664.19,434.58c.78.16,1.69.09,2.29.5,26.12,17.9,43.27,42.2,52.18,72.57,5.03,17.17,4.38,34.1-1.73,50.64-7.75,20.95-20.31,38.61-38.78,51.63-1.16.82-2.94.85-4.46,1.04-1.26.16-2.58-3.8-1.96-5.96.64-2.25,1.32-4.48,2.05-6.7,3.91-11.89,6.32-24.08,8.41-36.44,4.14-24.44.83-48.26-4.05-72.07-3.3-16.12-8.94-31.51-14.79-46.84-1.07-2.81-1.62-5.8.84-8.36Z"/>
  <path class="cls-1" d="M775.62,390.28c-.81,1.77-1.29,4.33-2.81,5.87-7.66,7.8-15.46,15.47-23.46,22.91-4.39,4.09-9.81,3.81-14.81-.43-5.36-4.55-10.46-9.42-15.77-14.03-25.48-22.14-22.87-18.5.32-41.65,14.48-14.45,23.93-14.04,37.86.5,6.45,6.73,11.8,14.52,17.48,21.96.85,1.11.75,2.93,1.19,4.87Z"/>
  <path class="cls-1" d="M323.41,744.63c-.51-9.69,2.61-18.36,8.19-26.02,8.27-11.35,18.44-20.65,31.32-26.66.45-.21,1.41.13,1.82.53.5.49.8,1.3.92,2.01.12.74.11,1.63-.19,2.29-9.22,19.63-20.56,37.98-33.76,55.17-.78,1.02-2.61,1.27-3.97,1.82-1.66.67-3.85-1.84-4-4.52-.08-1.54-.22-3.08-.33-4.62Z"/>
</svg>